<?xml version="1.0" encoding="us-ascii" standalone="no"?><svg xmlns="http://www.w3.org/2000/svg" xmlns:xlink="http://www.w3.org/1999/xlink" contentStyleType="text/css" height="1443px" preserveAspectRatio="none" style="width:1967px;height:1443px;background:#FFFFFF;" version="1.1" viewBox="0 0 1967 1443" width="1967px" zoomAndPan="magnify"><defs/><g><!--cluster analizador--><g id="cluster_analizador"><path d="M8.5,102 L95.5,102 A3.75,3.75 0 0 1 98,104.5 L105,124.2969 L1557.5,124.2969 A2.5,2.5 0 0 1 1560,126.7969 L1560,1433.5 A2.5,2.5 0 0 1 1557.5,1436 L8.5,1436 A2.5,2.5 0 0 1 6,1433.5 L6,104.5 A2.5,2.5 0 0 1 8.5,102 " fill="none" style="stroke:#000000;stroke-width:1.5;"/><line style="stroke:#000000;stroke-width:1.5;" x1="6" x2="105" y1="124.2969" y2="124.2969"/><text fill="#000000" font-family="sans-serif" font-size="14" font-weight="bold" lengthAdjust="spacing" textLength="86" x="10" y="116.9951">analizador</text></g><!--cluster controladores--><g id="cluster_controladores"><path d="M32.5,145 L147.5,145 A3.75,3.75 0 0 1 150,147.5 L157,167.2969 L1533.5,167.2969 A2.5,2.5 0 0 1 1536,169.7969 L1536,1057.5 A2.5,2.5 0 0 1 1533.5,1060 L32.5,1060 A2.5,2.5 0 0 1 30,1057.5 L30,147.5 A2.5,2.5 0 0 1 32.5,145 " fill="none" style="stroke:#000000;stroke-width:1.5;"/><line style="stroke:#000000;stroke-width:1.5;" x1="30" x2="157" y1="167.2969" y2="167.2969"/><text fill="#000000" font-family="sans-serif" font-size="14" font-weight="bold" lengthAdjust="spacing" textLength="114" x="34" y="159.9951">controladores</text></g><!--cluster parser--><g id="cluster_parser"><path d="M56.5,473 L109.5,473 A3.75,3.75 0 0 1 112,475.5 L119,495.2969 L1387.5,495.2969 A2.5,2.5 0 0 1 1390,497.7969 L1390,1033.5 A2.5,2.5 0 0 1 1387.5,1036 L56.5,1036 A2.5,2.5 0 0 1 54,1033.5 L54,475.5 A2.5,2.5 0 0 1 56.5,473 " fill="none" style="stroke:#000000;stroke-width:1.5;"/><line style="stroke:#000000;stroke-width:1.5;" x1="54" x2="119" y1="495.2969" y2="495.2969"/><text fill="#000000" font-family="sans-serif" font-size="14" font-weight="bold" lengthAdjust="spacing" textLength="52" x="58" y="487.9951">parser</text></g><!--cluster controladorpythonparser--><g id="cluster_controladorpythonparser"><path d="M80.5,671 L286.5,671 A3.75,3.75 0 0 1 289,673.5 L296,693.2969 L1363.5,693.2969 A2.5,2.5 0 0 1 1366,695.7969 L1366,1009.5 A2.5,2.5 0 0 1 1363.5,1012 L80.5,1012 A2.5,2.5 0 0 1 78,1009.5 L78,673.5 A2.5,2.5 0 0 1 80.5,671 " fill="none" style="stroke:#000000;stroke-width:1.5;"/><line style="stroke:#000000;stroke-width:1.5;" x1="78" x2="296" y1="693.2969" y2="693.2969"/><text fill="#000000" font-family="sans-serif" font-size="14" font-weight="bold" lengthAdjust="spacing" textLength="205" x="82" y="685.9951">controladorpythonparser</text></g><!--cluster modelos--><g id="cluster_modelos"><path d="M546.5,1093 L615.5,1093 A3.75,3.75 0 0 1 618,1095.5 L625,1115.2969 L1430.5,1115.2969 A2.5,2.5 0 0 1 1433,1117.7969 L1433,1409.5 A2.5,2.5 0 0 1 1430.5,1412 L546.5,1412 A2.5,2.5 0 0 1 544,1409.5 L544,1095.5 A2.5,2.5 0 0 1 546.5,1093 " fill="none" style="stroke:#000000;stroke-width:1.5;"/><line style="stroke:#000000;stroke-width:1.5;" x1="544" x2="625" y1="1115.2969" y2="1115.2969"/><text fill="#000000" font-family="sans-serif" font-size="14" font-weight="bold" lengthAdjust="spacing" textLength="68" x="548" y="1107.9951">modelos</text></g><!--cluster modelospythonparser--><g id="cluster_modelospythonparser"><path d="M570.5,1136 L748.5,1136 A3.75,3.75 0 0 1 751,1138.5 L758,1158.2969 L1213.5,1158.2969 A2.5,2.5 0 0 1 1216,1160.7969 L1216,1284.5 A2.5,2.5 0 0 1 1213.5,1287 L570.5,1287 A2.5,2.5 0 0 1 568,1284.5 L568,1138.5 A2.5,2.5 0 0 1 570.5,1136 " fill="none" style="stroke:#000000;stroke-width:1.5;"/><line style="stroke:#000000;stroke-width:1.5;" x1="568" x2="758" y1="1158.2969" y2="1158.2969"/><text fill="#000000" font-family="sans-serif" font-size="14" font-weight="bold" lengthAdjust="spacing" textLength="177" x="572" y="1150.9951">modelospythonparser</text></g><!--cluster util--><g id="cluster_util"><path d="M1586.5,703.5 L1615.5,703.5 A3.75,3.75 0 0 1 1618,706 L1625,725.7969 L1957.5,725.7969 A2.5,2.5 0 0 1 1960,728.2969 L1960,835 A2.5,2.5 0 0 1 1957.5,837.5 L1586.5,837.5 A2.5,2.5 0 0 1 1584,835 L1584,706 A2.5,2.5 0 0 1 1586.5,703.5 " fill="none" style="stroke:#000000;stroke-width:1.5;"/><line style="stroke:#000000;stroke-width:1.5;" x1="1584" x2="1625" y1="725.7969" y2="725.7969"/><text fill="#000000" font-family="sans-serif" font-size="14" font-weight="bold" lengthAdjust="spacing" textLength="28" x="1588" y="718.4951">util</text></g><!--class ControlAnalizador--><g id="elem_ControlAnalizador"><rect codeLine="9" fill="#F1F1F1" height="210.9688" id="ControlAnalizador" rx="2.5" ry="2.5" style="stroke:#181818;stroke-width:0.5;" width="294" x="998" y="199"/><ellipse cx="1076.25" cy="215" fill="#ADD1B2" rx="11" ry="11" style="stroke:#181818;stroke-width:1.0;"/><path d="M1078.5938,210.6719 C1077.6563,210.2344 1077.0625,210.0938 1076.1875,210.0938 C1073.5625,210.0938 1071.5625,212.1719 1071.5625,214.8906 L1071.5625,216.0156 C1071.5625,218.5938 1073.6719,220.4844 1076.5625,220.4844 C1077.7813,220.4844 1078.9375,220.1875 1079.6875,219.6406 C1080.2656,219.2344 1080.5938,218.7813 1080.5938,218.3906 C1080.5938,217.9375 1080.2031,217.5469 1079.7344,217.5469 C1079.5156,217.5469 1079.3125,217.625 1079.125,217.8125 C1078.6719,218.2969 1078.6719,218.2969 1078.4844,218.3906 C1078.0625,218.6563 1077.375,218.7813 1076.6094,218.7813 C1074.5625,218.7813 1073.2656,217.6875 1073.2656,215.9844 L1073.2656,214.8906 C1073.2656,213.1094 1074.5156,211.7969 1076.25,211.7969 C1076.8281,211.7969 1077.4375,211.9531 1077.9063,212.2031 C1078.3906,212.4844 1078.5625,212.7031 1078.6563,213.1094 C1078.7188,213.5156 1078.75,213.6406 1078.8906,213.7656 C1079.0313,213.9063 1079.2656,214.0156 1079.4844,214.0156 C1079.75,214.0156 1080.0156,213.875 1080.1875,213.6563 C1080.2969,213.5 1080.3281,213.3125 1080.3281,212.8906 L1080.3281,211.4688 C1080.3281,211.0313 1080.3125,210.9063 1080.2188,210.75 C1080.0625,210.4844 1079.7813,210.3438 1079.4844,210.3438 C1079.1875,210.3438 1078.9844,210.4375 1078.7656,210.75 L1078.5938,210.6719 Z " fill="#000000"/><text fill="#000000" font-family="sans-serif" font-size="14" lengthAdjust="spacing" textLength="129" x="1096.75" y="219.8467">ControlAnalizador</text><line style="stroke:#181818;stroke-width:0.5;" x1="999" x2="1291" y1="231" y2="231"/><rect fill="none" height="6" style="stroke:#C82930;stroke-width:1.0;" width="6" x="1006" y="241.6484"/><text fill="#000000" font-family="sans-serif" font-size="14" lengthAdjust="spacing" textLength="141" x="1018" y="247.9951">Escaneable scanner</text><rect fill="none" height="6" style="stroke:#C82930;stroke-width:1.0;" width="6" x="1006" y="257.9453"/><text fill="#000000" font-family="sans-serif" font-size="14" lengthAdjust="spacing" textLength="120" x="1018" y="264.292">Parseable parser</text><rect fill="none" height="6" style="stroke:#C82930;stroke-width:1.0;" width="6" x="1006" y="274.2422"/><text fill="#000000" font-family="sans-serif" font-size="14" lengthAdjust="spacing" textLength="259" x="1018" y="280.5889">ControlTablaSimbolo tablaSimbolos</text><rect fill="none" height="6" style="stroke:#C82930;stroke-width:1.0;" width="6" x="1006" y="290.5391"/><text fill="#000000" font-family="sans-serif" font-size="14" lengthAdjust="spacing" textLength="162" x="1018" y="296.8857">ControladorError error</text><line style="stroke:#181818;stroke-width:0.5;" x1="999" x2="1291" y1="304.1875" y2="304.1875"/><ellipse cx="1009" cy="317.8359" fill="#84BE84" rx="3" ry="3" style="stroke:#038048;stroke-width:1.0;"/><text fill="#000000" font-family="sans-serif" font-size="14" lengthAdjust="spacing" textLength="232" x="1018" y="321.1826">setFuente(String path): boolean</text><ellipse cx="1009" cy="334.1328" fill="#84BE84" rx="3" ry="3" style="stroke:#038048;stroke-width:1.0;"/><text fill="#000000" font-family="sans-serif" font-size="14" lengthAdjust="spacing" textLength="170" x="1018" y="337.4795">hacerAnalisis(): boolean</text><ellipse cx="1009" cy="350.4297" fill="#84BE84" rx="3" ry="3" style="stroke:#038048;stroke-width:1.0;"/><text fill="#000000" font-family="sans-serif" font-size="14" lengthAdjust="spacing" textLength="268" x="1018" y="353.7764">getArbolSintactico(): ArbolSintactico</text><ellipse cx="1009" cy="366.7266" fill="#84BE84" rx="3" ry="3" style="stroke:#038048;stroke-width:1.0;"/><text fill="#000000" font-family="sans-serif" font-size="14" lengthAdjust="spacing" textLength="129" x="1018" y="370.0732">esError(): boolean</text><ellipse cx="1009" cy="383.0234" fill="#84BE84" rx="3" ry="3" style="stroke:#038048;stroke-width:1.0;"/><text fill="#000000" font-family="sans-serif" font-size="14" lengthAdjust="spacing" textLength="132" x="1018" y="386.3701">getErrores(): Error</text><text fill="#000000" font-family="sans-serif" font-size="14" lengthAdjust="spacing" textLength="247" x="1018" y="402.667">getTablaSimbolos(): TablaSimbolo</text></g><!--class ControladorError--><g id="elem_ControladorError"><rect codeLine="22" fill="#F1F1F1" height="64.2969" id="ControladorError" rx="2.5" ry="2.5" style="stroke:#181818;stroke-width:0.5;" width="154" x="473" y="272.5"/><ellipse cx="488" cy="288.5" fill="#ADD1B2" rx="11" ry="11" style="stroke:#181818;stroke-width:1.0;"/><path d="M490.3438,284.1719 C489.4063,283.7344 488.8125,283.5938 487.9375,283.5938 C485.3125,283.5938 483.3125,285.6719 483.3125,288.3906 L483.3125,289.5156 C483.3125,292.0938 485.4219,293.9844 488.3125,293.9844 C489.5313,293.9844 490.6875,293.6875 491.4375,293.1406 C492.0156,292.7344 492.3438,292.2813 492.3438,291.8906 C492.3438,291.4375 491.9531,291.0469 491.4844,291.0469 C491.2656,291.0469 491.0625,291.125 490.875,291.3125 C490.4219,291.7969 490.4219,291.7969 490.2344,291.8906 C489.8125,292.1563 489.125,292.2813 488.3594,292.2813 C486.3125,292.2813 485.0156,291.1875 485.0156,289.4844 L485.0156,288.3906 C485.0156,286.6094 486.2656,285.2969 488,285.2969 C488.5781,285.2969 489.1875,285.4531 489.6563,285.7031 C490.1406,285.9844 490.3125,286.2031 490.4063,286.6094 C490.4688,287.0156 490.5,287.1406 490.6406,287.2656 C490.7813,287.4063 491.0156,287.5156 491.2344,287.5156 C491.5,287.5156 491.7656,287.375 491.9375,287.1563 C492.0469,287 492.0781,286.8125 492.0781,286.3906 L492.0781,284.9688 C492.0781,284.5313 492.0625,284.4063 491.9688,284.25 C491.8125,283.9844 491.5313,283.8438 491.2344,283.8438 C490.9375,283.8438 490.7344,283.9375 490.5156,284.25 L490.3438,284.1719 Z " fill="#000000"/><text fill="#000000" font-family="sans-serif" font-size="14" lengthAdjust="spacing" textLength="122" x="502" y="293.3467">ControladorError</text><line style="stroke:#181818;stroke-width:0.5;" x1="474" x2="626" y1="304.5" y2="304.5"/><rect fill="none" height="6" style="stroke:#C82930;stroke-width:1.0;" width="6" x="481" y="315.1484"/><text fill="#000000" font-family="sans-serif" font-size="14" lengthAdjust="spacing" textLength="76" x="493" y="321.4951">Error error</text><line style="stroke:#181818;stroke-width:0.5;" x1="474" x2="626" y1="328.7969" y2="328.7969"/></g><!--class Escaneable--><g id="elem_Escaneable"><rect fill="#F1F1F1" height="48" id="Escaneable" rx="2.5" ry="2.5" style="stroke:#181818;stroke-width:0.5;" width="113" x="1406.5" y="551.5"/><ellipse cx="1421.5" cy="567.5" fill="#ADD1B2" rx="11" ry="11" style="stroke:#181818;stroke-width:1.0;"/><path d="M1423.8438,563.1719 C1422.9063,562.7344 1422.3125,562.5938 1421.4375,562.5938 C1418.8125,562.5938 1416.8125,564.6719 1416.8125,567.3906 L1416.8125,568.5156 C1416.8125,571.0938 1418.9219,572.9844 1421.8125,572.9844 C1423.0313,572.9844 1424.1875,572.6875 1424.9375,572.1406 C1425.5156,571.7344 1425.8438,571.2813 1425.8438,570.8906 C1425.8438,570.4375 1425.4531,570.0469 1424.9844,570.0469 C1424.7656,570.0469 1424.5625,570.125 1424.375,570.3125 C1423.9219,570.7969 1423.9219,570.7969 1423.7344,570.8906 C1423.3125,571.1563 1422.625,571.2813 1421.8594,571.2813 C1419.8125,571.2813 1418.5156,570.1875 1418.5156,568.4844 L1418.5156,567.3906 C1418.5156,565.6094 1419.7656,564.2969 1421.5,564.2969 C1422.0781,564.2969 1422.6875,564.4531 1423.1563,564.7031 C1423.6406,564.9844 1423.8125,565.2031 1423.9063,565.6094 C1423.9688,566.0156 1424,566.1406 1424.1406,566.2656 C1424.2813,566.4063 1424.5156,566.5156 1424.7344,566.5156 C1425,566.5156 1425.2656,566.375 1425.4375,566.1563 C1425.5469,566 1425.5781,565.8125 1425.5781,565.3906 L1425.5781,563.9688 C1425.5781,563.5313 1425.5625,563.4063 1425.4688,563.25 C1425.3125,562.9844 1425.0313,562.8438 1424.7344,562.8438 C1424.4375,562.8438 1424.2344,562.9375 1424.0156,563.25 L1423.8438,563.1719 Z " fill="#000000"/><text fill="#000000" font-family="sans-serif" font-size="14" lengthAdjust="spacing" textLength="81" x="1435.5" y="572.3467">Escaneable</text><line style="stroke:#181818;stroke-width:0.5;" x1="1407.5" x2="1518.5" y1="583.5" y2="583.5"/><line style="stroke:#181818;stroke-width:0.5;" x1="1407.5" x2="1518.5" y1="591.5" y2="591.5"/></g><!--class ParserFactory--><g id="elem_ParserFactory"><rect codeLine="28" fill="#F1F1F1" height="64.2969" id="ParserFactory" rx="2.5" ry="2.5" style="stroke:#181818;stroke-width:0.5;" width="185" x="1186.5" y="543.5"/><ellipse cx="1225.8" cy="559.5" fill="#EB937F" rx="11" ry="11" style="stroke:#181818;stroke-width:1.0;"/><path d="M1224.5969,560.375 L1226.05,560.375 L1226.05,560.4844 C1226.05,560.8906 1226.0813,561.0469 1226.1594,561.2031 C1226.3156,561.4531 1226.5969,561.6094 1226.8938,561.6094 C1227.1438,561.6094 1227.4094,561.4688 1227.5656,561.25 C1227.6906,561.0938 1227.7219,560.9375 1227.7219,560.4844 L1227.7219,558.5625 C1227.7219,558.4063 1227.7219,558.3594 1227.7063,558.2031 C1227.6438,557.7344 1227.3313,557.4219 1226.8781,557.4219 C1226.6281,557.4219 1226.3625,557.5625 1226.1906,557.7813 C1226.0813,557.9531 1226.05,558.1094 1226.05,558.5625 L1226.05,558.6875 L1224.5969,558.6875 L1224.5969,556.2813 L1228.5813,556.2813 L1228.5813,557.1406 C1228.5813,557.5469 1228.6125,557.7188 1228.6906,557.875 C1228.8625,558.125 1229.1438,558.2813 1229.425,558.2813 C1229.6906,558.2813 1229.9563,558.1406 1230.1281,557.9219 C1230.2375,557.75 1230.2688,557.6094 1230.2688,557.1406 L1230.2688,554.5938 L1222.6438,554.5938 C1222.2063,554.5938 1222.0813,554.6094 1221.925,554.7031 C1221.675,554.8594 1221.5188,555.1563 1221.5188,555.4375 C1221.5188,555.7188 1221.6594,555.9688 1221.8781,556.1406 C1222.0344,556.25 1222.2219,556.2813 1222.6438,556.2813 L1222.8938,556.2813 L1222.8938,562.7969 L1222.6438,562.7969 C1222.2375,562.7969 1222.0813,562.8125 1221.925,562.9219 C1221.675,563.0938 1221.5188,563.3594 1221.5188,563.6563 C1221.5188,563.9219 1221.6594,564.1719 1221.8781,564.3281 C1222.0188,564.4531 1222.2531,564.5 1222.6438,564.5 L1230.6438,564.5 L1230.6438,561.9219 C1230.6438,561.4844 1230.6125,561.3438 1230.5344,561.1875 C1230.3625,560.9375 1230.0813,560.7813 1229.8,560.7813 C1229.5344,560.7813 1229.2688,560.8906 1229.0969,561.1406 C1228.9875,561.2969 1228.9563,561.4375 1228.9563,561.9219 L1228.9563,562.7969 L1224.5969,562.7969 L1224.5969,560.375 Z " fill="#000000"/><text fill="#000000" font-family="sans-serif" font-size="14" lengthAdjust="spacing" textLength="99" x="1245.2" y="564.3467">ParserFactory</text><line style="stroke:#181818;stroke-width:0.5;" x1="1187.5" x2="1370.5" y1="575.5" y2="575.5"/><line style="stroke:#181818;stroke-width:0.5;" x1="1187.5" x2="1370.5" y1="583.5" y2="583.5"/><ellipse cx="1197.5" cy="597.1484" fill="#84BE84" rx="3" ry="3" style="stroke:#038048;stroke-width:1.0;"/><text fill="#000000" font-family="sans-serif" font-size="14" lengthAdjust="spacing" textLength="159" x="1206.5" y="600.4951">getParser(): Parseable</text></g><!--class Parseable--><g id="elem_Parseable"><rect codeLine="32" fill="#F1F1F1" height="96.8906" id="Parseable" rx="2.5" ry="2.5" style="stroke:#181818;stroke-width:0.5;" width="206" x="945" y="527"/><ellipse cx="1008.75" cy="543" fill="#B4A7E5" rx="11" ry="11" style="stroke:#181818;stroke-width:1.0;"/><path d="M1009.7031,539.7813 L1011.4219,539.7813 C1011.8125,539.7813 1012,539.75 1012.125,539.6719 C1012.3906,539.5156 1012.5313,539.2344 1012.5313,538.9375 C1012.5313,538.6719 1012.4219,538.4063 1012.1875,538.2344 C1012.0156,538.125 1011.875,538.0938 1011.4219,538.0938 L1006.2813,538.0938 C1005.8438,538.0938 1005.7188,538.1094 1005.5625,538.2031 C1005.3125,538.3594 1005.1563,538.6563 1005.1563,538.9375 C1005.1563,539.2188 1005.2969,539.4688 1005.5156,539.6406 C1005.6719,539.75 1005.8594,539.7813 1006.2813,539.7813 L1008,539.7813 L1008,546.2969 L1006.2813,546.2969 C1005.8438,546.2969 1005.7188,546.3125 1005.5625,546.4219 C1005.3125,546.5781 1005.1563,546.8594 1005.1563,547.1563 C1005.1563,547.4063 1005.2969,547.6719 1005.5156,547.8281 C1005.6719,547.9531 1005.875,548 1006.2813,548 L1011.4219,548 C1012.1719,548 1012.5313,547.7188 1012.5313,547.1563 C1012.5313,546.875 1012.4219,546.625 1012.1875,546.4531 C1012.0156,546.3281 1011.875,546.2969 1011.4219,546.2969 L1009.7031,546.2969 L1009.7031,539.7813 Z " fill="#000000"/><text fill="#000000" font-family="sans-serif" font-size="14" font-style="italic" lengthAdjust="spacing" textLength="70" x="1029.25" y="547.8467">Parseable</text><line style="stroke:#181818;stroke-width:0.5;" x1="946" x2="1150" y1="559" y2="559"/><line style="stroke:#181818;stroke-width:0.5;" x1="946" x2="1150" y1="567" y2="567"/><ellipse cx="956" cy="580.6484" fill="#84BE84" rx="3" ry="3" style="stroke:#038048;stroke-width:1.0;"/><text fill="#000000" font-family="sans-serif" font-size="14" lengthAdjust="spacing" textLength="134" x="965" y="583.9951">getToken(): Token</text><ellipse cx="956" cy="596.9453" fill="#84BE84" rx="3" ry="3" style="stroke:#038048;stroke-width:1.0;"/><text fill="#000000" font-family="sans-serif" font-size="14" lengthAdjust="spacing" textLength="180" x="965" y="600.292">esFinalArchivo(): boolean</text><ellipse cx="956" cy="613.2422" fill="#84BE84" rx="3" ry="3" style="stroke:#038048;stroke-width:1.0;"/><text fill="#000000" font-family="sans-serif" font-size="14" lengthAdjust="spacing" textLength="159" x="965" y="616.5889">leerArchivo(): boolean</text></g><!--class PythonParser--><g id="elem_PythonParser"><rect codeLine="39" fill="#F1F1F1" height="129.4844" id="PythonParser" rx="2.5" ry="2.5" style="stroke:#181818;stroke-width:0.5;" width="460" x="704" y="725"/><ellipse cx="881.75" cy="741" fill="#ADD1B2" rx="11" ry="11" style="stroke:#181818;stroke-width:1.0;"/><path d="M884.0938,736.6719 C883.1563,736.2344 882.5625,736.0938 881.6875,736.0938 C879.0625,736.0938 877.0625,738.1719 877.0625,740.8906 L877.0625,742.0156 C877.0625,744.5938 879.1719,746.4844 882.0625,746.4844 C883.2813,746.4844 884.4375,746.1875 885.1875,745.6406 C885.7656,745.2344 886.0938,744.7813 886.0938,744.3906 C886.0938,743.9375 885.7031,743.5469 885.2344,743.5469 C885.0156,743.5469 884.8125,743.625 884.625,743.8125 C884.1719,744.2969 884.1719,744.2969 883.9844,744.3906 C883.5625,744.6563 882.875,744.7813 882.1094,744.7813 C880.0625,744.7813 878.7656,743.6875 878.7656,741.9844 L878.7656,740.8906 C878.7656,739.1094 880.0156,737.7969 881.75,737.7969 C882.3281,737.7969 882.9375,737.9531 883.4063,738.2031 C883.8906,738.4844 884.0625,738.7031 884.1563,739.1094 C884.2188,739.5156 884.25,739.6406 884.3906,739.7656 C884.5313,739.9063 884.7656,740.0156 884.9844,740.0156 C885.25,740.0156 885.5156,739.875 885.6875,739.6563 C885.7969,739.5 885.8281,739.3125 885.8281,738.8906 L885.8281,737.4688 C885.8281,737.0313 885.8125,736.9063 885.7188,736.75 C885.5625,736.4844 885.2813,736.3438 884.9844,736.3438 C884.6875,736.3438 884.4844,736.4375 884.2656,736.75 L884.0938,736.6719 Z " fill="#000000"/><text fill="#000000" font-family="sans-serif" font-size="14" lengthAdjust="spacing" textLength="96" x="902.25" y="745.8467">PythonParser</text><line style="stroke:#181818;stroke-width:0.5;" x1="705" x2="1163" y1="757" y2="757"/><rect fill="none" height="6" style="stroke:#C82930;stroke-width:1.0;" width="6" x="712" y="767.6484"/><text fill="#000000" font-family="sans-serif" font-size="14" lengthAdjust="spacing" textLength="434" x="724" y="773.9951">ControladorFuncionTrancicion ControladorFuncionTrancicion</text><rect fill="none" height="6" style="stroke:#C82930;stroke-width:1.0;" width="6" x="712" y="783.9453"/><text fill="#000000" font-family="sans-serif" font-size="14" lengthAdjust="spacing" textLength="93" x="724" y="790.292">numero linea</text><rect fill="none" height="6" style="stroke:#C82930;stroke-width:1.0;" width="6" x="712" y="800.2422"/><text fill="#000000" font-family="sans-serif" font-size="14" lengthAdjust="spacing" textLength="119" x="724" y="806.5889">numero columna</text><rect fill="none" height="6" style="stroke:#C82930;stroke-width:1.0;" width="6" x="712" y="816.5391"/><text fill="#000000" font-family="sans-serif" font-size="14" lengthAdjust="spacing" textLength="82" x="724" y="822.8857">String path</text><rect fill="none" height="6" style="stroke:#C82930;stroke-width:1.0;" width="6" x="712" y="832.8359"/><text fill="#000000" font-family="sans-serif" font-size="14" lengthAdjust="spacing" textLength="121" x="724" y="839.1826">String contenido</text><line style="stroke:#181818;stroke-width:0.5;" x1="705" x2="1163" y1="846.4844" y2="846.4844"/></g><!--class ControladorEstadoAceptacion--><g id="elem_ControladorEstadoAceptacion"><rect codeLine="47" fill="#F1F1F1" height="64.2969" id="ControladorEstadoAceptacion" rx="2.5" ry="2.5" style="stroke:#181818;stroke-width:0.5;" width="380" x="970" y="923.5"/><ellipse cx="1047.25" cy="939.5" fill="#ADD1B2" rx="11" ry="11" style="stroke:#181818;stroke-width:1.0;"/><path d="M1049.5938,935.1719 C1048.6563,934.7344 1048.0625,934.5938 1047.1875,934.5938 C1044.5625,934.5938 1042.5625,936.6719 1042.5625,939.3906 L1042.5625,940.5156 C1042.5625,943.0938 1044.6719,944.9844 1047.5625,944.9844 C1048.7813,944.9844 1049.9375,944.6875 1050.6875,944.1406 C1051.2656,943.7344 1051.5938,943.2813 1051.5938,942.8906 C1051.5938,942.4375 1051.2031,942.0469 1050.7344,942.0469 C1050.5156,942.0469 1050.3125,942.125 1050.125,942.3125 C1049.6719,942.7969 1049.6719,942.7969 1049.4844,942.8906 C1049.0625,943.1563 1048.375,943.2813 1047.6094,943.2813 C1045.5625,943.2813 1044.2656,942.1875 1044.2656,940.4844 L1044.2656,939.3906 C1044.2656,937.6094 1045.5156,936.2969 1047.25,936.2969 C1047.8281,936.2969 1048.4375,936.4531 1048.9063,936.7031 C1049.3906,936.9844 1049.5625,937.2031 1049.6563,937.6094 C1049.7188,938.0156 1049.75,938.1406 1049.8906,938.2656 C1050.0313,938.4063 1050.2656,938.5156 1050.4844,938.5156 C1050.75,938.5156 1051.0156,938.375 1051.1875,938.1563 C1051.2969,938 1051.3281,937.8125 1051.3281,937.3906 L1051.3281,935.9688 C1051.3281,935.5313 1051.3125,935.4063 1051.2188,935.25 C1051.0625,934.9844 1050.7813,934.8438 1050.4844,934.8438 C1050.1875,934.8438 1049.9844,934.9375 1049.7656,935.25 L1049.5938,935.1719 Z " fill="#000000"/><text fill="#000000" font-family="sans-serif" font-size="14" lengthAdjust="spacing" textLength="217" x="1067.75" y="944.3467">ControladorEstadoAceptacion</text><line style="stroke:#181818;stroke-width:0.5;" x1="971" x2="1349" y1="955.5" y2="955.5"/><line style="stroke:#181818;stroke-width:0.5;" x1="971" x2="1349" y1="963.5" y2="963.5"/><ellipse cx="981" cy="977.1484" fill="#84BE84" rx="3" ry="3" style="stroke:#038048;stroke-width:1.0;"/><text fill="#000000" font-family="sans-serif" font-size="14" lengthAdjust="spacing" textLength="354" x="990" y="980.4951">getEstadoAceptacion(Estado estado): TipoToken</text></g><!--class ControladorFuncionTrancicion--><g id="elem_ControladorFuncionTrancicion"><rect codeLine="52" fill="#F1F1F1" height="80.5938" id="ControladorFuncionTrancicion" rx="2.5" ry="2.5" style="stroke:#181818;stroke-width:0.5;" width="424" x="94" y="915"/><ellipse cx="194.25" cy="931" fill="#ADD1B2" rx="11" ry="11" style="stroke:#181818;stroke-width:1.0;"/><path d="M196.5938,926.6719 C195.6563,926.2344 195.0625,926.0938 194.1875,926.0938 C191.5625,926.0938 189.5625,928.1719 189.5625,930.8906 L189.5625,932.0156 C189.5625,934.5938 191.6719,936.4844 194.5625,936.4844 C195.7813,936.4844 196.9375,936.1875 197.6875,935.6406 C198.2656,935.2344 198.5938,934.7813 198.5938,934.3906 C198.5938,933.9375 198.2031,933.5469 197.7344,933.5469 C197.5156,933.5469 197.3125,933.625 197.125,933.8125 C196.6719,934.2969 196.6719,934.2969 196.4844,934.3906 C196.0625,934.6563 195.375,934.7813 194.6094,934.7813 C192.5625,934.7813 191.2656,933.6875 191.2656,931.9844 L191.2656,930.8906 C191.2656,929.1094 192.5156,927.7969 194.25,927.7969 C194.8281,927.7969 195.4375,927.9531 195.9063,928.2031 C196.3906,928.4844 196.5625,928.7031 196.6563,929.1094 C196.7188,929.5156 196.75,929.6406 196.8906,929.7656 C197.0313,929.9063 197.2656,930.0156 197.4844,930.0156 C197.75,930.0156 198.0156,929.875 198.1875,929.6563 C198.2969,929.5 198.3281,929.3125 198.3281,928.8906 L198.3281,927.4688 C198.3281,927.0313 198.3125,926.9063 198.2188,926.75 C198.0625,926.4844 197.7813,926.3438 197.4844,926.3438 C197.1875,926.3438 196.9844,926.4375 196.7656,926.75 L196.5938,926.6719 Z " fill="#000000"/><text fill="#000000" font-family="sans-serif" font-size="14" lengthAdjust="spacing" textLength="215" x="214.75" y="935.8467">ControladorFuncionTrancicion</text><line style="stroke:#181818;stroke-width:0.5;" x1="95" x2="517" y1="947" y2="947"/><rect fill="none" height="6" style="stroke:#C82930;stroke-width:1.0;" width="6" x="102" y="957.6484"/><text fill="#000000" font-family="sans-serif" font-size="14" lengthAdjust="spacing" textLength="176" x="114" y="963.9951">Estado[][] matrizEstados</text><line style="stroke:#181818;stroke-width:0.5;" x1="95" x2="517" y1="971.2969" y2="971.2969"/><ellipse cx="105" cy="984.9453" fill="#84BE84" rx="3" ry="3" style="stroke:#038048;stroke-width:1.0;"/><text fill="#000000" font-family="sans-serif" font-size="14" lengthAdjust="spacing" textLength="398" x="114" y="988.292">delta(Estado estado, SimboloAlfabeto simbolo): Estado</text></g><!--class ControladorSimboloAlfabeto--><g id="elem_ControladorSimboloAlfabeto"><rect codeLine="57" fill="#F1F1F1" height="80.5938" id="ControladorSimboloAlfabeto" rx="2.5" ry="2.5" style="stroke:#181818;stroke-width:0.5;" width="382" x="553" y="915"/><ellipse cx="635.75" cy="931" fill="#ADD1B2" rx="11" ry="11" style="stroke:#181818;stroke-width:1.0;"/><path d="M638.0938,926.6719 C637.1563,926.2344 636.5625,926.0938 635.6875,926.0938 C633.0625,926.0938 631.0625,928.1719 631.0625,930.8906 L631.0625,932.0156 C631.0625,934.5938 633.1719,936.4844 636.0625,936.4844 C637.2813,936.4844 638.4375,936.1875 639.1875,935.6406 C639.7656,935.2344 640.0938,934.7813 640.0938,934.3906 C640.0938,933.9375 639.7031,933.5469 639.2344,933.5469 C639.0156,933.5469 638.8125,933.625 638.625,933.8125 C638.1719,934.2969 638.1719,934.2969 637.9844,934.3906 C637.5625,934.6563 636.875,934.7813 636.1094,934.7813 C634.0625,934.7813 632.7656,933.6875 632.7656,931.9844 L632.7656,930.8906 C632.7656,929.1094 634.0156,927.7969 635.75,927.7969 C636.3281,927.7969 636.9375,927.9531 637.4063,928.2031 C637.8906,928.4844 638.0625,928.7031 638.1563,929.1094 C638.2188,929.5156 638.25,929.6406 638.3906,929.7656 C638.5313,929.9063 638.7656,930.0156 638.9844,930.0156 C639.25,930.0156 639.5156,929.875 639.6875,929.6563 C639.7969,929.5 639.8281,929.3125 639.8281,928.8906 L639.8281,927.4688 C639.8281,927.0313 639.8125,926.9063 639.7188,926.75 C639.5625,926.4844 639.2813,926.3438 638.9844,926.3438 C638.6875,926.3438 638.4844,926.4375 638.2656,926.75 L638.0938,926.6719 Z " fill="#000000"/><text fill="#000000" font-family="sans-serif" font-size="14" lengthAdjust="spacing" textLength="208" x="656.25" y="935.8467">ControladorSimboloAlfabeto</text><line style="stroke:#181818;stroke-width:0.5;" x1="554" x2="934" y1="947" y2="947"/><line style="stroke:#181818;stroke-width:0.5;" x1="554" x2="934" y1="955" y2="955"/><ellipse cx="564" cy="968.6484" fill="#84BE84" rx="3" ry="3" style="stroke:#038048;stroke-width:1.0;"/><text fill="#000000" font-family="sans-serif" font-size="14" lengthAdjust="spacing" textLength="213" x="573" y="971.9951">isCaracterTerminal(): boolean</text><ellipse cx="564" cy="984.9453" fill="#84BE84" rx="3" ry="3" style="stroke:#038048;stroke-width:1.0;"/><text fill="#000000" font-family="sans-serif" font-size="14" lengthAdjust="spacing" textLength="356" x="573" y="988.292">getTipoAlfabeto(char caracter): SimboloAlfabeto</text></g><!--class Token--><g id="elem_Token"><rect codeLine="81" fill="#F1F1F1" height="113.1875" id="Token" rx="2.5" ry="2.5" style="stroke:#181818;stroke-width:0.5;" width="182" x="1235" y="1174"/><ellipse cx="1299.25" cy="1190" fill="#ADD1B2" rx="11" ry="11" style="stroke:#181818;stroke-width:1.0;"/><path d="M1301.5938,1185.6719 C1300.6563,1185.2344 1300.0625,1185.0938 1299.1875,1185.0938 C1296.5625,1185.0938 1294.5625,1187.1719 1294.5625,1189.8906 L1294.5625,1191.0156 C1294.5625,1193.5938 1296.6719,1195.4844 1299.5625,1195.4844 C1300.7813,1195.4844 1301.9375,1195.1875 1302.6875,1194.6406 C1303.2656,1194.2344 1303.5938,1193.7813 1303.5938,1193.3906 C1303.5938,1192.9375 1303.2031,1192.5469 1302.7344,1192.5469 C1302.5156,1192.5469 1302.3125,1192.625 1302.125,1192.8125 C1301.6719,1193.2969 1301.6719,1193.2969 1301.4844,1193.3906 C1301.0625,1193.6563 1300.375,1193.7813 1299.6094,1193.7813 C1297.5625,1193.7813 1296.2656,1192.6875 1296.2656,1190.9844 L1296.2656,1189.8906 C1296.2656,1188.1094 1297.5156,1186.7969 1299.25,1186.7969 C1299.8281,1186.7969 1300.4375,1186.9531 1300.9063,1187.2031 C1301.3906,1187.4844 1301.5625,1187.7031 1301.6563,1188.1094 C1301.7188,1188.5156 1301.75,1188.6406 1301.8906,1188.7656 C1302.0313,1188.9063 1302.2656,1189.0156 1302.4844,1189.0156 C1302.75,1189.0156 1303.0156,1188.875 1303.1875,1188.6563 C1303.2969,1188.5 1303.3281,1188.3125 1303.3281,1187.8906 L1303.3281,1186.4688 C1303.3281,1186.0313 1303.3125,1185.9063 1303.2188,1185.75 C1303.0625,1185.4844 1302.7813,1185.3438 1302.4844,1185.3438 C1302.1875,1185.3438 1301.9844,1185.4375 1301.7656,1185.75 L1301.5938,1185.6719 Z " fill="#000000"/><text fill="#000000" font-family="sans-serif" font-size="14" lengthAdjust="spacing" textLength="45" x="1319.75" y="1194.8467">Token</text><line style="stroke:#181818;stroke-width:0.5;" x1="1236" x2="1416" y1="1206" y2="1206"/><rect fill="none" height="6" style="stroke:#C82930;stroke-width:1.0;" width="6" x="1243" y="1216.6484"/><text fill="#000000" font-family="sans-serif" font-size="14" lengthAdjust="spacing" textLength="156" x="1255" y="1222.9951">TipoToken tipoToken</text><rect fill="none" height="6" style="stroke:#C82930;stroke-width:1.0;" width="6" x="1243" y="1232.9453"/><text fill="#000000" font-family="sans-serif" font-size="14" lengthAdjust="spacing" textLength="58" x="1255" y="1239.292">int linea</text><rect fill="none" height="6" style="stroke:#C82930;stroke-width:1.0;" width="6" x="1243" y="1249.2422"/><text fill="#000000" font-family="sans-serif" font-size="14" lengthAdjust="spacing" textLength="84" x="1255" y="1255.5889">int columna</text><rect fill="none" height="6" style="stroke:#C82930;stroke-width:1.0;" width="6" x="1243" y="1265.5391"/><text fill="#000000" font-family="sans-serif" font-size="14" lengthAdjust="spacing" textLength="82" x="1255" y="1271.8857">String path</text><line style="stroke:#181818;stroke-width:0.5;" x1="1236" x2="1416" y1="1279.1875" y2="1279.1875"/></g><!--class TipoToken--><g id="elem_TipoToken"><rect codeLine="88" fill="#F1F1F1" height="48" id="TipoToken" rx="2.5" ry="2.5" style="stroke:#181818;stroke-width:0.5;" width="109" x="1298.5" y="1348"/><ellipse cx="1313.5" cy="1364" fill="#EB937F" rx="11" ry="11" style="stroke:#181818;stroke-width:1.0;"/><path d="M1312.2969,1364.875 L1313.75,1364.875 L1313.75,1364.9844 C1313.75,1365.3906 1313.7813,1365.5469 1313.8594,1365.7031 C1314.0156,1365.9531 1314.2969,1366.1094 1314.5938,1366.1094 C1314.8438,1366.1094 1315.1094,1365.9688 1315.2656,1365.75 C1315.3906,1365.5938 1315.4219,1365.4375 1315.4219,1364.9844 L1315.4219,1363.0625 C1315.4219,1362.9063 1315.4219,1362.8594 1315.4063,1362.7031 C1315.3438,1362.2344 1315.0313,1361.9219 1314.5781,1361.9219 C1314.3281,1361.9219 1314.0625,1362.0625 1313.8906,1362.2813 C1313.7813,1362.4531 1313.75,1362.6094 1313.75,1363.0625 L1313.75,1363.1875 L1312.2969,1363.1875 L1312.2969,1360.7813 L1316.2813,1360.7813 L1316.2813,1361.6406 C1316.2813,1362.0469 1316.3125,1362.2188 1316.3906,1362.375 C1316.5625,1362.625 1316.8438,1362.7813 1317.125,1362.7813 C1317.3906,1362.7813 1317.6563,1362.6406 1317.8281,1362.4219 C1317.9375,1362.25 1317.9688,1362.1094 1317.9688,1361.6406 L1317.9688,1359.0938 L1310.3438,1359.0938 C1309.9063,1359.0938 1309.7813,1359.1094 1309.625,1359.2031 C1309.375,1359.3594 1309.2188,1359.6563 1309.2188,1359.9375 C1309.2188,1360.2188 1309.3594,1360.4688 1309.5781,1360.6406 C1309.7344,1360.75 1309.9219,1360.7813 1310.3438,1360.7813 L1310.5938,1360.7813 L1310.5938,1367.2969 L1310.3438,1367.2969 C1309.9375,1367.2969 1309.7813,1367.3125 1309.625,1367.4219 C1309.375,1367.5938 1309.2188,1367.8594 1309.2188,1368.1563 C1309.2188,1368.4219 1309.3594,1368.6719 1309.5781,1368.8281 C1309.7188,1368.9531 1309.9531,1369 1310.3438,1369 L1318.3438,1369 L1318.3438,1366.4219 C1318.3438,1365.9844 1318.3125,1365.8438 1318.2344,1365.6875 C1318.0625,1365.4375 1317.7813,1365.2813 1317.5,1365.2813 C1317.2344,1365.2813 1316.9688,1365.3906 1316.7969,1365.6406 C1316.6875,1365.7969 1316.6563,1365.9375 1316.6563,1366.4219 L1316.6563,1367.2969 L1312.2969,1367.2969 L1312.2969,1364.875 Z " fill="#000000"/><text fill="#000000" font-family="sans-serif" font-size="14" lengthAdjust="spacing" textLength="77" x="1327.5" y="1368.8467">TipoToken</text><line style="stroke:#181818;stroke-width:0.5;" x1="1299.5" x2="1406.5" y1="1380" y2="1380"/><line style="stroke:#181818;stroke-width:0.5;" x1="1299.5" x2="1406.5" y1="1388" y2="1388"/></g><!--class Estado--><g id="elem_Estado"><rect codeLine="93" fill="#F1F1F1" height="80.5938" id="Estado" rx="2.5" ry="2.5" style="stroke:#181818;stroke-width:0.5;" width="94" x="773" y="1190"/><ellipse cx="793.85" cy="1206" fill="#EB937F" rx="11" ry="11" style="stroke:#181818;stroke-width:1.0;"/><path d="M792.6469,1206.875 L794.1,1206.875 L794.1,1206.9844 C794.1,1207.3906 794.1313,1207.5469 794.2094,1207.7031 C794.3656,1207.9531 794.6469,1208.1094 794.9438,1208.1094 C795.1938,1208.1094 795.4594,1207.9688 795.6156,1207.75 C795.7406,1207.5938 795.7719,1207.4375 795.7719,1206.9844 L795.7719,1205.0625 C795.7719,1204.9063 795.7719,1204.8594 795.7563,1204.7031 C795.6938,1204.2344 795.3813,1203.9219 794.9281,1203.9219 C794.6781,1203.9219 794.4125,1204.0625 794.2406,1204.2813 C794.1313,1204.4531 794.1,1204.6094 794.1,1205.0625 L794.1,1205.1875 L792.6469,1205.1875 L792.6469,1202.7813 L796.6313,1202.7813 L796.6313,1203.6406 C796.6313,1204.0469 796.6625,1204.2188 796.7406,1204.375 C796.9125,1204.625 797.1938,1204.7813 797.475,1204.7813 C797.7406,1204.7813 798.0063,1204.6406 798.1781,1204.4219 C798.2875,1204.25 798.3188,1204.1094 798.3188,1203.6406 L798.3188,1201.0938 L790.6938,1201.0938 C790.2563,1201.0938 790.1313,1201.1094 789.975,1201.2031 C789.725,1201.3594 789.5688,1201.6563 789.5688,1201.9375 C789.5688,1202.2188 789.7094,1202.4688 789.9281,1202.6406 C790.0844,1202.75 790.2719,1202.7813 790.6938,1202.7813 L790.9438,1202.7813 L790.9438,1209.2969 L790.6938,1209.2969 C790.2875,1209.2969 790.1313,1209.3125 789.975,1209.4219 C789.725,1209.5938 789.5688,1209.8594 789.5688,1210.1563 C789.5688,1210.4219 789.7094,1210.6719 789.9281,1210.8281 C790.0688,1210.9531 790.3031,1211 790.6938,1211 L798.6938,1211 L798.6938,1208.4219 C798.6938,1207.9844 798.6625,1207.8438 798.5844,1207.6875 C798.4125,1207.4375 798.1313,1207.2813 797.85,1207.2813 C797.5844,1207.2813 797.3188,1207.3906 797.1469,1207.6406 C797.0375,1207.7969 797.0063,1207.9375 797.0063,1208.4219 L797.0063,1209.2969 L792.6469,1209.2969 L792.6469,1206.875 Z " fill="#000000"/><text fill="#000000" font-family="sans-serif" font-size="14" lengthAdjust="spacing" textLength="49" x="809.15" y="1210.8467">Estado</text><line style="stroke:#181818;stroke-width:0.5;" x1="774" x2="866" y1="1222" y2="1222"/><ellipse cx="784" cy="1235.6484" fill="none" rx="3" ry="3" style="stroke:#038048;stroke-width:1.0;"/><text fill="#000000" font-family="sans-serif" font-size="14" lengthAdjust="spacing" textLength="68" x="793" y="1238.9951">ESTADO1</text><ellipse cx="784" cy="1251.9453" fill="none" rx="3" ry="3" style="stroke:#038048;stroke-width:1.0;"/><text fill="#000000" font-family="sans-serif" font-size="14" lengthAdjust="spacing" textLength="67" x="793" y="1255.292">ESTADO2</text><line style="stroke:#181818;stroke-width:0.5;" x1="774" x2="866" y1="1262.5938" y2="1262.5938"/></g><!--class EstadoAceptacion--><g id="elem_EstadoAceptacion"><rect codeLine="98" fill="#F1F1F1" height="80.5938" id="EstadoAceptacion" rx="2.5" ry="2.5" style="stroke:#181818;stroke-width:0.5;" width="298" x="902" y="1190"/><ellipse cx="981.25" cy="1206" fill="#ADD1B2" rx="11" ry="11" style="stroke:#181818;stroke-width:1.0;"/><path d="M983.5938,1201.6719 C982.6563,1201.2344 982.0625,1201.0938 981.1875,1201.0938 C978.5625,1201.0938 976.5625,1203.1719 976.5625,1205.8906 L976.5625,1207.0156 C976.5625,1209.5938 978.6719,1211.4844 981.5625,1211.4844 C982.7813,1211.4844 983.9375,1211.1875 984.6875,1210.6406 C985.2656,1210.2344 985.5938,1209.7813 985.5938,1209.3906 C985.5938,1208.9375 985.2031,1208.5469 984.7344,1208.5469 C984.5156,1208.5469 984.3125,1208.625 984.125,1208.8125 C983.6719,1209.2969 983.6719,1209.2969 983.4844,1209.3906 C983.0625,1209.6563 982.375,1209.7813 981.6094,1209.7813 C979.5625,1209.7813 978.2656,1208.6875 978.2656,1206.9844 L978.2656,1205.8906 C978.2656,1204.1094 979.5156,1202.7969 981.25,1202.7969 C981.8281,1202.7969 982.4375,1202.9531 982.9063,1203.2031 C983.3906,1203.4844 983.5625,1203.7031 983.6563,1204.1094 C983.7188,1204.5156 983.75,1204.6406 983.8906,1204.7656 C984.0313,1204.9063 984.2656,1205.0156 984.4844,1205.0156 C984.75,1205.0156 985.0156,1204.875 985.1875,1204.6563 C985.2969,1204.5 985.3281,1204.3125 985.3281,1203.8906 L985.3281,1202.4688 C985.3281,1202.0313 985.3125,1201.9063 985.2188,1201.75 C985.0625,1201.4844 984.7813,1201.3438 984.4844,1201.3438 C984.1875,1201.3438 983.9844,1201.4375 983.7656,1201.75 L983.5938,1201.6719 Z " fill="#000000"/><text fill="#000000" font-family="sans-serif" font-size="14" lengthAdjust="spacing" textLength="131" x="1001.75" y="1210.8467">EstadoAceptacion</text><line style="stroke:#181818;stroke-width:0.5;" x1="903" x2="1199" y1="1222" y2="1222"/><rect fill="none" height="6" style="stroke:#C82930;stroke-width:1.0;" width="6" x="910" y="1232.6484"/><text fill="#000000" font-family="sans-serif" font-size="14" lengthAdjust="spacing" textLength="232" x="922" y="1238.9951">List&lt;Estado&gt; estadoAceptacion</text><line style="stroke:#181818;stroke-width:0.5;" x1="903" x2="1199" y1="1246.2969" y2="1246.2969"/><ellipse cx="913" cy="1259.9453" fill="#84BE84" rx="3" ry="3" style="stroke:#038048;stroke-width:1.0;"/><text fill="#000000" font-family="sans-serif" font-size="14" lengthAdjust="spacing" textLength="272" x="922" y="1263.292">getEstadoAceptacion(): List&lt;Estado&gt;</text></g><!--class SimboloAlfabeto--><g id="elem_SimboloAlfabeto"><rect codeLine="103" fill="#F1F1F1" height="80.5938" id="SimboloAlfabeto" rx="2.5" ry="2.5" style="stroke:#181818;stroke-width:0.5;" width="154" x="584" y="1190"/><ellipse cx="599" cy="1206" fill="#EB937F" rx="11" ry="11" style="stroke:#181818;stroke-width:1.0;"/><path d="M597.7969,1206.875 L599.25,1206.875 L599.25,1206.9844 C599.25,1207.3906 599.2813,1207.5469 599.3594,1207.7031 C599.5156,1207.9531 599.7969,1208.1094 600.0938,1208.1094 C600.3438,1208.1094 600.6094,1207.9688 600.7656,1207.75 C600.8906,1207.5938 600.9219,1207.4375 600.9219,1206.9844 L600.9219,1205.0625 C600.9219,1204.9063 600.9219,1204.8594 600.9063,1204.7031 C600.8438,1204.2344 600.5313,1203.9219 600.0781,1203.9219 C599.8281,1203.9219 599.5625,1204.0625 599.3906,1204.2813 C599.2813,1204.4531 599.25,1204.6094 599.25,1205.0625 L599.25,1205.1875 L597.7969,1205.1875 L597.7969,1202.7813 L601.7813,1202.7813 L601.7813,1203.6406 C601.7813,1204.0469 601.8125,1204.2188 601.8906,1204.375 C602.0625,1204.625 602.3438,1204.7813 602.625,1204.7813 C602.8906,1204.7813 603.1563,1204.6406 603.3281,1204.4219 C603.4375,1204.25 603.4688,1204.1094 603.4688,1203.6406 L603.4688,1201.0938 L595.8438,1201.0938 C595.4063,1201.0938 595.2813,1201.1094 595.125,1201.2031 C594.875,1201.3594 594.7188,1201.6563 594.7188,1201.9375 C594.7188,1202.2188 594.8594,1202.4688 595.0781,1202.6406 C595.2344,1202.75 595.4219,1202.7813 595.8438,1202.7813 L596.0938,1202.7813 L596.0938,1209.2969 L595.8438,1209.2969 C595.4375,1209.2969 595.2813,1209.3125 595.125,1209.4219 C594.875,1209.5938 594.7188,1209.8594 594.7188,1210.1563 C594.7188,1210.4219 594.8594,1210.6719 595.0781,1210.8281 C595.2188,1210.9531 595.4531,1211 595.8438,1211 L603.8438,1211 L603.8438,1208.4219 C603.8438,1207.9844 603.8125,1207.8438 603.7344,1207.6875 C603.5625,1207.4375 603.2813,1207.2813 603,1207.2813 C602.7344,1207.2813 602.4688,1207.3906 602.2969,1207.6406 C602.1875,1207.7969 602.1563,1207.9375 602.1563,1208.4219 L602.1563,1209.2969 L597.7969,1209.2969 L597.7969,1206.875 Z " fill="#000000"/><text fill="#000000" font-family="sans-serif" font-size="14" lengthAdjust="spacing" textLength="122" x="613" y="1210.8467">SimboloAlfabeto</text><line style="stroke:#181818;stroke-width:0.5;" x1="585" x2="737" y1="1222" y2="1222"/><ellipse cx="595" cy="1235.6484" fill="none" rx="3" ry="3" style="stroke:#038048;stroke-width:1.0;"/><text fill="#000000" font-family="sans-serif" font-size="14" lengthAdjust="spacing" textLength="42" x="604" y="1238.9951">digito</text><ellipse cx="595" cy="1251.9453" fill="none" rx="3" ry="3" style="stroke:#038048;stroke-width:1.0;"/><text fill="#000000" font-family="sans-serif" font-size="14" lengthAdjust="spacing" textLength="41" x="604" y="1255.292">letras</text><line style="stroke:#181818;stroke-width:0.5;" x1="585" x2="737" y1="1262.5938" y2="1262.5938"/></g><!--class AdministradorArchivos--><g id="elem_AdministradorArchivos"><rect codeLine="124" fill="#F1F1F1" height="64.2969" id="AdministradorArchivos" rx="2.5" ry="2.5" style="stroke:#181818;stroke-width:0.5;" width="343" x="1600.5" y="757.5"/><ellipse cx="1686.25" cy="773.5" fill="#ADD1B2" rx="11" ry="11" style="stroke:#181818;stroke-width:1.0;"/><path d="M1688.5938,769.1719 C1687.6563,768.7344 1687.0625,768.5938 1686.1875,768.5938 C1683.5625,768.5938 1681.5625,770.6719 1681.5625,773.3906 L1681.5625,774.5156 C1681.5625,777.0938 1683.6719,778.9844 1686.5625,778.9844 C1687.7813,778.9844 1688.9375,778.6875 1689.6875,778.1406 C1690.2656,777.7344 1690.5938,777.2813 1690.5938,776.8906 C1690.5938,776.4375 1690.2031,776.0469 1689.7344,776.0469 C1689.5156,776.0469 1689.3125,776.125 1689.125,776.3125 C1688.6719,776.7969 1688.6719,776.7969 1688.4844,776.8906 C1688.0625,777.1563 1687.375,777.2813 1686.6094,777.2813 C1684.5625,777.2813 1683.2656,776.1875 1683.2656,774.4844 L1683.2656,773.3906 C1683.2656,771.6094 1684.5156,770.2969 1686.25,770.2969 C1686.8281,770.2969 1687.4375,770.4531 1687.9063,770.7031 C1688.3906,770.9844 1688.5625,771.2031 1688.6563,771.6094 C1688.7188,772.0156 1688.75,772.1406 1688.8906,772.2656 C1689.0313,772.4063 1689.2656,772.5156 1689.4844,772.5156 C1689.75,772.5156 1690.0156,772.375 1690.1875,772.1563 C1690.2969,772 1690.3281,771.8125 1690.3281,771.3906 L1690.3281,769.9688 C1690.3281,769.5313 1690.3125,769.4063 1690.2188,769.25 C1690.0625,768.9844 1689.7813,768.8438 1689.4844,768.8438 C1689.1875,768.8438 1688.9844,768.9375 1688.7656,769.25 L1688.5938,769.1719 Z " fill="#000000"/><text fill="#000000" font-family="sans-serif" font-size="14" lengthAdjust="spacing" textLength="163" x="1706.75" y="778.3467">AdministradorArchivos</text><line style="stroke:#181818;stroke-width:0.5;" x1="1601.5" x2="1942.5" y1="789.5" y2="789.5"/><line style="stroke:#181818;stroke-width:0.5;" x1="1601.5" x2="1942.5" y1="797.5" y2="797.5"/><ellipse cx="1611.5" cy="811.1484" fill="#84BE84" rx="3" ry="3" style="stroke:#038048;stroke-width:1.0;"/><text fill="#000000" font-family="sans-serif" font-size="14" lengthAdjust="spacing" textLength="317" x="1620.5" y="814.4951">String leerArchivoTexto(String path): String</text></g><!--class Main--><g id="elem_Main"><rect codeLine="1" fill="#F1F1F1" height="48" id="Main" rx="2.5" ry="2.5" style="stroke:#181818;stroke-width:0.5;" width="65" x="1112.5" y="7"/><ellipse cx="1127.5" cy="23" fill="#ADD1B2" rx="11" ry="11" style="stroke:#181818;stroke-width:1.0;"/><path d="M1129.8438,18.6719 C1128.9063,18.2344 1128.3125,18.0938 1127.4375,18.0938 C1124.8125,18.0938 1122.8125,20.1719 1122.8125,22.8906 L1122.8125,24.0156 C1122.8125,26.5938 1124.9219,28.4844 1127.8125,28.4844 C1129.0313,28.4844 1130.1875,28.1875 1130.9375,27.6406 C1131.5156,27.2344 1131.8438,26.7813 1131.8438,26.3906 C1131.8438,25.9375 1131.4531,25.5469 1130.9844,25.5469 C1130.7656,25.5469 1130.5625,25.625 1130.375,25.8125 C1129.9219,26.2969 1129.9219,26.2969 1129.7344,26.3906 C1129.3125,26.6563 1128.625,26.7813 1127.8594,26.7813 C1125.8125,26.7813 1124.5156,25.6875 1124.5156,23.9844 L1124.5156,22.8906 C1124.5156,21.1094 1125.7656,19.7969 1127.5,19.7969 C1128.0781,19.7969 1128.6875,19.9531 1129.1563,20.2031 C1129.6406,20.4844 1129.8125,20.7031 1129.9063,21.1094 C1129.9688,21.5156 1130,21.6406 1130.1406,21.7656 C1130.2813,21.9063 1130.5156,22.0156 1130.7344,22.0156 C1131,22.0156 1131.2656,21.875 1131.4375,21.6563 C1131.5469,21.5 1131.5781,21.3125 1131.5781,20.8906 L1131.5781,19.4688 C1131.5781,19.0313 1131.5625,18.9063 1131.4688,18.75 C1131.3125,18.4844 1131.0313,18.3438 1130.7344,18.3438 C1130.4375,18.3438 1130.2344,18.4375 1130.0156,18.75 L1129.8438,18.6719 Z " fill="#000000"/><text fill="#000000" font-family="sans-serif" font-size="14" lengthAdjust="spacing" textLength="33" x="1141.5" y="27.8467">Main</text><line style="stroke:#181818;stroke-width:0.5;" x1="1113.5" x2="1176.5" y1="39" y2="39"/><line style="stroke:#181818;stroke-width:0.5;" x1="1113.5" x2="1176.5" y1="47" y2="47"/></g><!--reverse link PythonParser to ControladorFuncionTrancicion--><g id="link_PythonParser_ControladorFuncionTrancicion"><path codeLine="62" d="M692.1114,853.6682 C610.0224,875.1062 531.308,895.662 457.511,914.933 " fill="none" id="PythonParser-backto-ControladorFuncionTrancicion" style="stroke:#181818;stroke-width:1.0;"/><polygon fill="#181818" points="703.722,850.636,696.906,848.2819,692.1114,853.6682,698.9274,856.0223,703.722,850.636" style="stroke:#181818;stroke-width:1.0;"/></g><!--link PythonParser to ControladorEstadoAceptacion--><g id="link_PythonParser_ControladorEstadoAceptacion"><path codeLine="63" d="M1021.7,854.141 C1054.46,877.911 1085.3435,900.3276 1112.2935,919.8796 " fill="none" id="PythonParser-to-ControladorEstadoAceptacion" style="stroke:#181818;stroke-width:1.0;"/><polygon fill="#181818" points="1117.15,923.403,1112.2141,914.8803,1113.1029,920.4669,1107.5163,921.3556,1117.15,923.403" style="stroke:#181818;stroke-width:1.0;"/></g><!--link PythonParser to ControladorSimboloAlfabeto--><g id="link_PythonParser_ControladorSimboloAlfabeto"><path codeLine="64" d="M860.269,854.141 C836.59,874.58 815.595,892.7015 794.502,910.9085 " fill="none" id="PythonParser-to-ControladorSimboloAlfabeto" style="stroke:#181818;stroke-width:1.0;"/><polygon fill="#181818" points="789.96,914.829,799.3866,911.9762,793.745,911.5619,794.1593,905.9202,789.96,914.829" style="stroke:#181818;stroke-width:1.0;"/></g><!--reverse link Parseable to PythonParser--><g id="link_Parseable_PythonParser"><path codeLine="67" d="M1013.8941,639.9297 C997.8741,669.7167 985.567,692.603 968.148,724.996 " fill="none" id="Parseable-backto-PythonParser" style="stroke:#181818;stroke-width:1.0;"/><polygon fill="none" points="1022.42,624.077,1008.6099,637.0878,1019.1784,642.7717,1022.42,624.077" style="stroke:#181818;stroke-width:1.0;"/></g><!--reverse link Parseable to ParserFactory--><g id="link_Parseable_ParserFactory"><path codeLine="68" d="M1157.32,575.5 C1168.96,575.5 1174.59,575.5 1186.23,575.5 " fill="none" id="Parseable-backto-ParserFactory" style="stroke:#181818;stroke-width:1.0;stroke-dasharray:7.0,7.0;"/><polygon fill="#181818" points="1151.32,575.5,1160.32,579.5,1156.32,575.5,1160.32,571.5,1151.32,575.5" style="stroke:#181818;stroke-width:1.0;"/></g><!--reverse link ControlAnalizador to Parseable--><g id="link_ControlAnalizador_Parseable"><path codeLine="73" d="M1103.1506,421.5589 C1088.6306,461.8389 1076.83,494.562 1065.17,526.88 " fill="none" id="ControlAnalizador-backto-Parseable" style="stroke:#181818;stroke-width:1.0;"/><polygon fill="#181818" points="1107.22,410.27,1101.4223,414.558,1103.1506,421.5589,1108.9483,417.2709,1107.22,410.27" style="stroke:#181818;stroke-width:1.0;"/></g><!--link ControlAnalizador to ParserFactory--><g id="link_ControlAnalizador_ParserFactory"><path codeLine="74" d="M1197.19,410.27 C1220.93,457.922 1244.5942,505.4407 1260.8142,537.9947 " fill="none" id="ControlAnalizador-to-ParserFactory" style="stroke:#181818;stroke-width:1.0;stroke-dasharray:7.0,7.0;"/><polygon fill="#181818" points="1263.49,543.365,1263.0566,533.5257,1261.2602,538.8897,1255.8962,537.0934,1263.49,543.365" style="stroke:#181818;stroke-width:1.0;"/></g><!--link Escaneable to Parseable--><g id="link_Escaneable_Parseable"><path codeLine="76" d="M1453.96,551.212 C1443.09,525.945 1422.18,487.777 1390,471 C1302.9,425.6 1261.06,436.75 1169,471 C1138.43,482.372 1114.6567,501.0614 1093.3167,522.5624 " fill="none" id="Escaneable-to-Parseable" style="stroke:#181818;stroke-width:1.0;"/><polygon fill="#181818" points="1089.09,526.821,1098.269,523.2509,1092.6122,523.2722,1092.591,517.6154,1089.09,526.821" style="stroke:#181818;stroke-width:1.0;"/><text fill="#000000" font-family="sans-serif" font-size="13" lengthAdjust="spacing" textLength="60" x="1249" y="453.0669">getToken</text></g><!--reverse link Token to TipoToken--><g id="link_Token_TipoToken"><path codeLine="109" d="M1339.0312,1298.8162 C1343.1212,1319.9392 1345.28,1331.096 1348.48,1347.652 " fill="none" id="Token-backto-TipoToken" style="stroke:#181818;stroke-width:1.0;"/><polygon fill="#181818" points="1336.75,1287.035,1333.9635,1293.686,1339.0312,1298.8162,1341.8176,1292.1652,1336.75,1287.035" style="stroke:#181818;stroke-width:1.0;"/></g><!--link Parseable to Token--><g id="link_Parseable_Token"><path codeLine="114" d="M1151.21,618.417 C1157.19,620.409 1163.15,622.288 1169,624 C1254.66,649.074 1309.35,594.031 1366,663 C1488.04,811.565 1403.3467,1056.9915 1354.9167,1168.1395 " fill="none" id="Parseable-to-Token" style="stroke:#181818;stroke-width:1.0;stroke-dasharray:7.0,7.0;"/><polygon fill="#181818" points="1352.52,1173.64,1359.7821,1166.987,1354.5173,1169.0562,1352.4481,1163.7914,1352.52,1173.64" style="stroke:#181818;stroke-width:1.0;"/></g><!--link ControladorEstadoAceptacion to EstadoAceptacion--><g id="link_ControladorEstadoAceptacion_EstadoAceptacion"><path codeLine="115" d="M1147.6,987.551 C1127.74,1037.303 1091.0142,1129.2685 1069.1342,1184.0875 " fill="none" id="ControladorEstadoAceptacion-to-EstadoAceptacion" style="stroke:#181818;stroke-width:1.0;"/><polygon fill="#181818" points="1066.91,1189.66,1073.9613,1182.784,1068.7635,1185.0162,1066.5312,1179.8184,1066.91,1189.66" style="stroke:#181818;stroke-width:1.0;"/></g><!--link ControladorEstadoAceptacion to TipoToken--><g id="link_ControladorEstadoAceptacion_TipoToken"><path codeLine="116" d="M1298.82,987.544 C1350.72,1006.615 1404.44,1036.987 1435,1085 C1485.12,1163.736 1472.35,1209.465 1435,1295 C1425.6,1316.524 1411.5399,1331.0402 1394.2899,1344.2032 " fill="none" id="ControladorEstadoAceptacion-to-TipoToken" style="stroke:#181818;stroke-width:1.0;"/><polygon fill="#181818" points="1389.52,1347.843,1399.1014,1345.5633,1393.4949,1344.8098,1394.2483,1339.2034,1389.52,1347.843" style="stroke:#181818;stroke-width:1.0;"/></g><!--reverse link ControladorFuncionTrancicion to Estado--><g id="link_ControladorFuncionTrancicion_Estado"><path codeLine="117" d="M380.986,1002.0049 C425.504,1027.2249 476.536,1052.127 535,1068 C582.321,1080.848 714.882,1056.805 755,1085 C789.434,1109.2 805.926,1156.088 813.623,1189.9 " fill="none" id="ControladorFuncionTrancicion-backto-Estado" style="stroke:#181818;stroke-width:1.0;"/><polygon fill="#181818" points="370.545,996.09,373.7938,1002.5278,380.986,1002.0049,377.7371,995.5671,370.545,996.09" style="stroke:#181818;stroke-width:1.0;"/></g><!--link ControladorFuncionTrancicion to SimboloAlfabeto--><g id="link_ControladorFuncionTrancicion_SimboloAlfabeto"><path codeLine="118" d="M357.62,996.197 C425.022,1048.029 537.5598,1134.5724 604.8498,1186.3194 " fill="none" id="ControladorFuncionTrancicion-to-SimboloAlfabeto" style="stroke:#181818;stroke-width:1.0;stroke-dasharray:7.0,7.0;"/><polygon fill="#181818" points="609.606,1189.977,604.9101,1181.3197,605.6425,1186.929,600.0332,1187.6614,609.606,1189.977" style="stroke:#181818;stroke-width:1.0;"/></g><!--link ControladorSimboloAlfabeto to SimboloAlfabeto--><g id="link_ControladorSimboloAlfabeto_SimboloAlfabeto"><path codeLine="119" d="M731.931,996.197 C716.195,1047.955 690.5723,1132.2325 674.8283,1184.0155 " fill="none" id="ControladorSimboloAlfabeto-to-SimboloAlfabeto" style="stroke:#181818;stroke-width:1.0;stroke-dasharray:7.0,7.0;"/><polygon fill="#181818" points="673.083,1189.756,679.528,1182.3088,674.5375,1184.9722,671.874,1179.9816,673.083,1189.756" style="stroke:#181818;stroke-width:1.0;"/></g><!--link Parseable to AdministradorArchivos--><g id="link_Parseable_AdministradorArchivos"><path codeLine="129" d="M1151.08,618.865 C1157.1,620.743 1163.1,622.475 1169,624 C1267.1,649.365 1296.51,630.178 1395,654 C1503.58,680.264 1618.9015,724.2937 1693.8115,755.1207 " fill="none" id="Parseable-to-AdministradorArchivos" style="stroke:#181818;stroke-width:1.0;stroke-dasharray:7.0,7.0;"/><polygon fill="#181818" points="1699.36,757.404,1692.5594,750.28,1694.7362,755.5012,1689.515,757.678,1699.36,757.404" style="stroke:#181818;stroke-width:1.0;"/></g><!--link Main to ControlAnalizador--><g id="link_Main_ControlAnalizador"><path codeLine="130" d="M1145,55.15 C1145,86.95 1145,140.21 1145,192.87 " fill="none" id="Main-to-ControlAnalizador" style="stroke:#181818;stroke-width:1.0;stroke-dasharray:7.0,7.0;"/><polygon fill="#181818" points="1145,198.87,1149,189.87,1145,193.87,1141,189.87,1145,198.87" style="stroke:#181818;stroke-width:1.0;"/></g><!--SRC=[dLV9Rjim4BthAtXqcyf0UmmA0q9YdreqW7qBSg3fiKr49WsIRfka_lSEIScYA8fPTB0MFiu-RsXMKwt9Jye5UIcASr4SANkaEo1Kq9e_qurKTe7WrQumAOoIjLq2tIxQYpbPDtwv2lUJu2h9N3CgWAvh8FP9W8e0TrHfltwqJ_5oes652BhaXxMi9J71YqxZhIrpfT0WiByzq1NHO1Od40OcIwEusA5gi_zqJTPIra15XDvJ1igvgBcUZC9sO2g59YsvC9GPpgJ5Hf-YFQ2TaLcX3W5EyNpW2ww7eN6eyCC5V1v9NHUeGUOIuGkaj1NYinQMXhr0d0u-jMg1dalr5Cbtxg7r7cFDlXH23tVkoyL0WjfYGeAwIGXsSP6F85myx4C20th1CQkLOdl-Muxbm6Dhm1B80oDB4nrqV39xAIu1YxNulDmvqDqOQ53bYvDWN8gLedYtJzd54NcOBL2Ir1nRDGzXiZuTn1WeQASymaO51D_80ImAOxfWjS5RnU28RMLTJiV9jq-4dVWFc7rxi-N1ZzANo8Ti6SP_B6bUyVt3_GCvK0p3i_-WHspVG6retzelf6dhgjxIDHX9j7-ttE0G7t8X5ZeMJQvlgC9k1hK2TR2zaskQhX4nmAti2TjJHLWZ1dT7kjzYVwz3FfVb-mg-jxiiPxcwUjVcd2UH5tqnfsFvRpP2VtqAdTQmDTCGMwIeUJYLRPI62eQuQIkyLTa93GPvgVXkRyh0ZkiBuHQ1BIq57YJMiamS7zoEmU2vD2GnbzRi8t0A9BZAVqyHL9gOWeYvSTNfVIbo4wzn9yFcJbpJkQdfD5-kgjjVNqTNlkMAnuVk3HHOaXzSc-yUEMie95FSQRh47Wt5v2npRhzE9aXjVCSJlMx7h55KHpeIsdoQR5L7x7rkEg8x7TYIxceeDqHiFoSPuBLDgrwPPcU3DJbWwYpMMfuYbGnpfxQ41_sJuNMJ4Lz6rGPv7DEhhBJcWAE3d5srdHCSW5Rm5ucyVtBsRqqAK64NVsjJKalX_eXCD_AFcCw6NFGV]--></g></svg>