<?xml version="1.0" encoding="us-ascii" standalone="no"?><svg xmlns="http://www.w3.org/2000/svg" xmlns:xlink="http://www.w3.org/1999/xlink" contentStyleType="text/css" height="828px" preserveAspectRatio="none" style="width:1177px;height:828px;background:#FFFFFF;" version="1.1" viewBox="0 0 1177 828" width="1177px" zoomAndPan="magnify"><defs/><g><!--cluster analizador--><g id="cluster_analizador"><path d="M8.5,71 L95.5,71 A3.75,3.75 0 0 1 98,73.5 L105,93.2969 L1167.5,93.2969 A2.5,2.5 0 0 1 1170,95.7969 L1170,818.5 A2.5,2.5 0 0 1 1167.5,821 L8.5,821 A2.5,2.5 0 0 1 6,818.5 L6,73.5 A2.5,2.5 0 0 1 8.5,71 " fill="none" style="stroke:#000000;stroke-width:1.5;"/><line style="stroke:#000000;stroke-width:1.5;" x1="6" x2="105" y1="93.2969" y2="93.2969"/><text fill="#000000" font-family="sans-serif" font-size="14" font-weight="bold" lengthAdjust="spacing" textLength="86" x="10" y="85.9951">analizador</text></g><!--cluster controladores--><g id="cluster_controladores"><path d="M32.5,114 L147.5,114 A3.75,3.75 0 0 1 150,116.5 L157,136.2969 L1143.5,136.2969 A2.5,2.5 0 0 1 1146,138.7969 L1146,547.5 A2.5,2.5 0 0 1 1143.5,550 L32.5,550 A2.5,2.5 0 0 1 30,547.5 L30,116.5 A2.5,2.5 0 0 1 32.5,114 " fill="none" style="stroke:#000000;stroke-width:1.5;"/><line style="stroke:#000000;stroke-width:1.5;" x1="30" x2="157" y1="136.2969" y2="136.2969"/><text fill="#000000" font-family="sans-serif" font-size="14" font-weight="bold" lengthAdjust="spacing" textLength="114" x="34" y="128.9951">controladores</text></g><!--cluster scanner--><g id="cluster_scanner"><path d="M56.5,295 L121.5,295 A3.75,3.75 0 0 1 124,297.5 L131,317.2969 L498.5,317.2969 A2.5,2.5 0 0 1 501,319.7969 L501,523.5 A2.5,2.5 0 0 1 498.5,526 L56.5,526 A2.5,2.5 0 0 1 54,523.5 L54,297.5 A2.5,2.5 0 0 1 56.5,295 " fill="none" style="stroke:#000000;stroke-width:1.5;"/><line style="stroke:#000000;stroke-width:1.5;" x1="54" x2="131" y1="317.2969" y2="317.2969"/><text fill="#000000" font-family="sans-serif" font-size="14" font-weight="bold" lengthAdjust="spacing" textLength="64" x="58" y="309.9951">scanner</text></g><!--cluster parser--><g id="cluster_parser"><path d="M527.5,295 L580.5,295 A3.75,3.75 0 0 1 583,297.5 L590,317.2969 L698.5,317.2969 A2.5,2.5 0 0 1 701,319.7969 L701,515.5 A2.5,2.5 0 0 1 698.5,518 L527.5,518 A2.5,2.5 0 0 1 525,515.5 L525,297.5 A2.5,2.5 0 0 1 527.5,295 " fill="none" style="stroke:#000000;stroke-width:1.5;"/><line style="stroke:#000000;stroke-width:1.5;" x1="525" x2="590" y1="317.2969" y2="317.2969"/><text fill="#000000" font-family="sans-serif" font-size="14" font-weight="bold" lengthAdjust="spacing" textLength="52" x="529" y="309.9951">parser</text></g><!--cluster modelos--><g id="cluster_modelos"><path d="M354.5,574 L423.5,574 A3.75,3.75 0 0 1 426,576.5 L433,596.2969 L1010.5,596.2969 A2.5,2.5 0 0 1 1013,598.7969 L1013,794.5 A2.5,2.5 0 0 1 1010.5,797 L354.5,797 A2.5,2.5 0 0 1 352,794.5 L352,576.5 A2.5,2.5 0 0 1 354.5,574 " fill="none" style="stroke:#000000;stroke-width:1.5;"/><line style="stroke:#000000;stroke-width:1.5;" x1="352" x2="433" y1="596.2969" y2="596.2969"/><text fill="#000000" font-family="sans-serif" font-size="14" font-weight="bold" lengthAdjust="spacing" textLength="68" x="356" y="588.9951">modelos</text></g><!--class ControlAnalizador--><g id="elem_ControlAnalizador"><rect codeLine="9" fill="#F1F1F1" height="113.1875" id="ControlAnalizador" rx="2.5" ry="2.5" style="stroke:#181818;stroke-width:0.5;" width="285" x="578.5" y="149"/><ellipse cx="652.25" cy="165" fill="#ADD1B2" rx="11" ry="11" style="stroke:#181818;stroke-width:1.0;"/><path d="M654.5938,160.6719 C653.6563,160.2344 653.0625,160.0938 652.1875,160.0938 C649.5625,160.0938 647.5625,162.1719 647.5625,164.8906 L647.5625,166.0156 C647.5625,168.5938 649.6719,170.4844 652.5625,170.4844 C653.7813,170.4844 654.9375,170.1875 655.6875,169.6406 C656.2656,169.2344 656.5938,168.7813 656.5938,168.3906 C656.5938,167.9375 656.2031,167.5469 655.7344,167.5469 C655.5156,167.5469 655.3125,167.625 655.125,167.8125 C654.6719,168.2969 654.6719,168.2969 654.4844,168.3906 C654.0625,168.6563 653.375,168.7813 652.6094,168.7813 C650.5625,168.7813 649.2656,167.6875 649.2656,165.9844 L649.2656,164.8906 C649.2656,163.1094 650.5156,161.7969 652.25,161.7969 C652.8281,161.7969 653.4375,161.9531 653.9063,162.2031 C654.3906,162.4844 654.5625,162.7031 654.6563,163.1094 C654.7188,163.5156 654.75,163.6406 654.8906,163.7656 C655.0313,163.9063 655.2656,164.0156 655.4844,164.0156 C655.75,164.0156 656.0156,163.875 656.1875,163.6563 C656.2969,163.5 656.3281,163.3125 656.3281,162.8906 L656.3281,161.4688 C656.3281,161.0313 656.3125,160.9063 656.2188,160.75 C656.0625,160.4844 655.7813,160.3438 655.4844,160.3438 C655.1875,160.3438 654.9844,160.4375 654.7656,160.75 L654.5938,160.6719 Z " fill="#000000"/><text fill="#000000" font-family="sans-serif" font-size="14" lengthAdjust="spacing" textLength="129" x="672.75" y="169.8467">ControlAnalizador</text><line style="stroke:#181818;stroke-width:0.5;" x1="579.5" x2="862.5" y1="181" y2="181"/><rect fill="none" height="6" style="stroke:#C82930;stroke-width:1.0;" width="6" x="586.5" y="191.6484"/><text fill="#000000" font-family="sans-serif" font-size="14" lengthAdjust="spacing" textLength="141" x="598.5" y="197.9951">Escaneable scanner</text><rect fill="none" height="6" style="stroke:#C82930;stroke-width:1.0;" width="6" x="586.5" y="207.9453"/><text fill="#000000" font-family="sans-serif" font-size="14" lengthAdjust="spacing" textLength="120" x="598.5" y="214.292">Parseable parser</text><rect fill="none" height="6" style="stroke:#C82930;stroke-width:1.0;" width="6" x="586.5" y="224.2422"/><text fill="#000000" font-family="sans-serif" font-size="14" lengthAdjust="spacing" textLength="259" x="598.5" y="230.5889">ControlTablaSimbolo tablaSimbolos</text><rect fill="none" height="6" style="stroke:#C82930;stroke-width:1.0;" width="6" x="586.5" y="240.5391"/><text fill="#000000" font-family="sans-serif" font-size="14" lengthAdjust="spacing" textLength="162" x="598.5" y="246.8857">ControladorError error</text><line style="stroke:#181818;stroke-width:0.5;" x1="579.5" x2="862.5" y1="254.1875" y2="254.1875"/></g><!--class ControlTablaSimbolo--><g id="elem_ControlTablaSimbolo"><rect codeLine="16" fill="#F1F1F1" height="64.2969" id="ControlTablaSimbolo" rx="2.5" ry="2.5" style="stroke:#181818;stroke-width:0.5;" width="224" x="717" y="322"/><ellipse cx="750" cy="338" fill="#ADD1B2" rx="11" ry="11" style="stroke:#181818;stroke-width:1.0;"/><path d="M752.3438,333.6719 C751.4063,333.2344 750.8125,333.0938 749.9375,333.0938 C747.3125,333.0938 745.3125,335.1719 745.3125,337.8906 L745.3125,339.0156 C745.3125,341.5938 747.4219,343.4844 750.3125,343.4844 C751.5313,343.4844 752.6875,343.1875 753.4375,342.6406 C754.0156,342.2344 754.3438,341.7813 754.3438,341.3906 C754.3438,340.9375 753.9531,340.5469 753.4844,340.5469 C753.2656,340.5469 753.0625,340.625 752.875,340.8125 C752.4219,341.2969 752.4219,341.2969 752.2344,341.3906 C751.8125,341.6563 751.125,341.7813 750.3594,341.7813 C748.3125,341.7813 747.0156,340.6875 747.0156,338.9844 L747.0156,337.8906 C747.0156,336.1094 748.2656,334.7969 750,334.7969 C750.5781,334.7969 751.1875,334.9531 751.6563,335.2031 C752.1406,335.4844 752.3125,335.7031 752.4063,336.1094 C752.4688,336.5156 752.5,336.6406 752.6406,336.7656 C752.7813,336.9063 753.0156,337.0156 753.2344,337.0156 C753.5,337.0156 753.7656,336.875 753.9375,336.6563 C754.0469,336.5 754.0781,336.3125 754.0781,335.8906 L754.0781,334.4688 C754.0781,334.0313 754.0625,333.9063 753.9688,333.75 C753.8125,333.4844 753.5313,333.3438 753.2344,333.3438 C752.9375,333.3438 752.7344,333.4375 752.5156,333.75 L752.3438,333.6719 Z " fill="#000000"/><text fill="#000000" font-family="sans-serif" font-size="14" lengthAdjust="spacing" textLength="152" x="768" y="342.8467">ControlTablaSimbolo</text><line style="stroke:#181818;stroke-width:0.5;" x1="718" x2="940" y1="354" y2="354"/><rect fill="none" height="6" style="stroke:#C82930;stroke-width:1.0;" width="6" x="725" y="364.6484"/><text fill="#000000" font-family="sans-serif" font-size="14" lengthAdjust="spacing" textLength="198" x="737" y="370.9951">TablaSimbolo tablaSimbolo</text><line style="stroke:#181818;stroke-width:0.5;" x1="718" x2="940" y1="378.2969" y2="378.2969"/></g><!--class ControladorError--><g id="elem_ControladorError"><rect codeLine="20" fill="#F1F1F1" height="64.2969" id="ControladorError" rx="2.5" ry="2.5" style="stroke:#181818;stroke-width:0.5;" width="154" x="976" y="322"/><ellipse cx="991" cy="338" fill="#ADD1B2" rx="11" ry="11" style="stroke:#181818;stroke-width:1.0;"/><path d="M993.3438,333.6719 C992.4063,333.2344 991.8125,333.0938 990.9375,333.0938 C988.3125,333.0938 986.3125,335.1719 986.3125,337.8906 L986.3125,339.0156 C986.3125,341.5938 988.4219,343.4844 991.3125,343.4844 C992.5313,343.4844 993.6875,343.1875 994.4375,342.6406 C995.0156,342.2344 995.3438,341.7813 995.3438,341.3906 C995.3438,340.9375 994.9531,340.5469 994.4844,340.5469 C994.2656,340.5469 994.0625,340.625 993.875,340.8125 C993.4219,341.2969 993.4219,341.2969 993.2344,341.3906 C992.8125,341.6563 992.125,341.7813 991.3594,341.7813 C989.3125,341.7813 988.0156,340.6875 988.0156,338.9844 L988.0156,337.8906 C988.0156,336.1094 989.2656,334.7969 991,334.7969 C991.5781,334.7969 992.1875,334.9531 992.6563,335.2031 C993.1406,335.4844 993.3125,335.7031 993.4063,336.1094 C993.4688,336.5156 993.5,336.6406 993.6406,336.7656 C993.7813,336.9063 994.0156,337.0156 994.2344,337.0156 C994.5,337.0156 994.7656,336.875 994.9375,336.6563 C995.0469,336.5 995.0781,336.3125 995.0781,335.8906 L995.0781,334.4688 C995.0781,334.0313 995.0625,333.9063 994.9688,333.75 C994.8125,333.4844 994.5313,333.3438 994.2344,333.3438 C993.9375,333.3438 993.7344,333.4375 993.5156,333.75 L993.3438,333.6719 Z " fill="#000000"/><text fill="#000000" font-family="sans-serif" font-size="14" lengthAdjust="spacing" textLength="122" x="1005" y="342.8467">ControladorError</text><line style="stroke:#181818;stroke-width:0.5;" x1="977" x2="1129" y1="354" y2="354"/><rect fill="none" height="6" style="stroke:#C82930;stroke-width:1.0;" width="6" x="984" y="364.6484"/><text fill="#000000" font-family="sans-serif" font-size="14" lengthAdjust="spacing" textLength="76" x="996" y="370.9951">Error error</text><line style="stroke:#181818;stroke-width:0.5;" x1="977" x2="1129" y1="378.2969" y2="378.2969"/></g><!--class ControladorArbolSintactico--><g id="elem_ControladorArbolSintactico"><rect codeLine="26" fill="#F1F1F1" height="64.2969" id="ControladorArbolSintactico" rx="2.5" ry="2.5" style="stroke:#181818;stroke-width:0.5;" width="252" x="70" y="446"/><ellipse cx="94.9" cy="462" fill="#ADD1B2" rx="11" ry="11" style="stroke:#181818;stroke-width:1.0;"/><path d="M97.2438,457.6719 C96.3063,457.2344 95.7125,457.0938 94.8375,457.0938 C92.2125,457.0938 90.2125,459.1719 90.2125,461.8906 L90.2125,463.0156 C90.2125,465.5938 92.3219,467.4844 95.2125,467.4844 C96.4313,467.4844 97.5875,467.1875 98.3375,466.6406 C98.9156,466.2344 99.2438,465.7813 99.2438,465.3906 C99.2438,464.9375 98.8531,464.5469 98.3844,464.5469 C98.1656,464.5469 97.9625,464.625 97.775,464.8125 C97.3219,465.2969 97.3219,465.2969 97.1344,465.3906 C96.7125,465.6563 96.025,465.7813 95.2594,465.7813 C93.2125,465.7813 91.9156,464.6875 91.9156,462.9844 L91.9156,461.8906 C91.9156,460.1094 93.1656,458.7969 94.9,458.7969 C95.4781,458.7969 96.0875,458.9531 96.5563,459.2031 C97.0406,459.4844 97.2125,459.7031 97.3063,460.1094 C97.3688,460.5156 97.4,460.6406 97.5406,460.7656 C97.6813,460.9063 97.9156,461.0156 98.1344,461.0156 C98.4,461.0156 98.6656,460.875 98.8375,460.6563 C98.9469,460.5 98.9781,460.3125 98.9781,459.8906 L98.9781,458.4688 C98.9781,458.0313 98.9625,457.9063 98.8688,457.75 C98.7125,457.4844 98.4313,457.3438 98.1344,457.3438 C97.8375,457.3438 97.6344,457.4375 97.4156,457.75 L97.2438,457.6719 Z " fill="#000000"/><text fill="#000000" font-family="sans-serif" font-size="14" lengthAdjust="spacing" textLength="198" x="111.1" y="466.8467">ControladorArbolSintactico</text><line style="stroke:#181818;stroke-width:0.5;" x1="71" x2="321" y1="478" y2="478"/><rect fill="none" height="6" style="stroke:#C82930;stroke-width:1.0;" width="6" x="78" y="488.6484"/><text fill="#000000" font-family="sans-serif" font-size="14" lengthAdjust="spacing" textLength="226" x="90" y="494.9951">ArbolSintactico arbolSintactico</text><line style="stroke:#181818;stroke-width:0.5;" x1="71" x2="321" y1="502.2969" y2="502.2969"/></g><!--class Escaneable--><g id="elem_Escaneable"><rect codeLine="30" fill="#F1F1F1" height="48" id="Escaneable" rx="2.5" ry="2.5" style="stroke:#181818;stroke-width:0.5;" width="114" x="367" y="330"/><ellipse cx="382" cy="346" fill="#B4A7E5" rx="11" ry="11" style="stroke:#181818;stroke-width:1.0;"/><path d="M382.9531,342.7813 L384.6719,342.7813 C385.0625,342.7813 385.25,342.75 385.375,342.6719 C385.6406,342.5156 385.7813,342.2344 385.7813,341.9375 C385.7813,341.6719 385.6719,341.4063 385.4375,341.2344 C385.2656,341.125 385.125,341.0938 384.6719,341.0938 L379.5313,341.0938 C379.0938,341.0938 378.9688,341.1094 378.8125,341.2031 C378.5625,341.3594 378.4063,341.6563 378.4063,341.9375 C378.4063,342.2188 378.5469,342.4688 378.7656,342.6406 C378.9219,342.75 379.1094,342.7813 379.5313,342.7813 L381.25,342.7813 L381.25,349.2969 L379.5313,349.2969 C379.0938,349.2969 378.9688,349.3125 378.8125,349.4219 C378.5625,349.5781 378.4063,349.8594 378.4063,350.1563 C378.4063,350.4063 378.5469,350.6719 378.7656,350.8281 C378.9219,350.9531 379.125,351 379.5313,351 L384.6719,351 C385.4219,351 385.7813,350.7188 385.7813,350.1563 C385.7813,349.875 385.6719,349.625 385.4375,349.4531 C385.2656,349.3281 385.125,349.2969 384.6719,349.2969 L382.9531,349.2969 L382.9531,342.7813 Z " fill="#000000"/><text fill="#000000" font-family="sans-serif" font-size="14" font-style="italic" lengthAdjust="spacing" textLength="82" x="396" y="350.8467">Escaneable</text><line style="stroke:#181818;stroke-width:0.5;" x1="368" x2="480" y1="362" y2="362"/><line style="stroke:#181818;stroke-width:0.5;" x1="368" x2="480" y1="370" y2="370"/></g><!--class AutomataPila--><g id="elem_AutomataPila"><rect codeLine="34" fill="#F1F1F1" height="48" id="AutomataPila" rx="2.5" ry="2.5" style="stroke:#181818;stroke-width:0.5;" width="128" x="357" y="454"/><ellipse cx="372" cy="470" fill="#ADD1B2" rx="11" ry="11" style="stroke:#181818;stroke-width:1.0;"/><path d="M374.3438,465.6719 C373.4063,465.2344 372.8125,465.0938 371.9375,465.0938 C369.3125,465.0938 367.3125,467.1719 367.3125,469.8906 L367.3125,471.0156 C367.3125,473.5938 369.4219,475.4844 372.3125,475.4844 C373.5313,475.4844 374.6875,475.1875 375.4375,474.6406 C376.0156,474.2344 376.3438,473.7813 376.3438,473.3906 C376.3438,472.9375 375.9531,472.5469 375.4844,472.5469 C375.2656,472.5469 375.0625,472.625 374.875,472.8125 C374.4219,473.2969 374.4219,473.2969 374.2344,473.3906 C373.8125,473.6563 373.125,473.7813 372.3594,473.7813 C370.3125,473.7813 369.0156,472.6875 369.0156,470.9844 L369.0156,469.8906 C369.0156,468.1094 370.2656,466.7969 372,466.7969 C372.5781,466.7969 373.1875,466.9531 373.6563,467.2031 C374.1406,467.4844 374.3125,467.7031 374.4063,468.1094 C374.4688,468.5156 374.5,468.6406 374.6406,468.7656 C374.7813,468.9063 375.0156,469.0156 375.2344,469.0156 C375.5,469.0156 375.7656,468.875 375.9375,468.6563 C376.0469,468.5 376.0781,468.3125 376.0781,467.8906 L376.0781,466.4688 C376.0781,466.0313 376.0625,465.9063 375.9688,465.75 C375.8125,465.4844 375.5313,465.3438 375.2344,465.3438 C374.9375,465.3438 374.7344,465.4375 374.5156,465.75 L374.3438,465.6719 Z " fill="#000000"/><text fill="#000000" font-family="sans-serif" font-size="14" lengthAdjust="spacing" textLength="96" x="386" y="474.8467">AutomataPila</text><line style="stroke:#181818;stroke-width:0.5;" x1="358" x2="484" y1="486" y2="486"/><line style="stroke:#181818;stroke-width:0.5;" x1="358" x2="484" y1="494" y2="494"/></g><!--class Parseable--><g id="elem_Parseable"><rect codeLine="43" fill="#F1F1F1" height="48" id="Parseable" rx="2.5" ry="2.5" style="stroke:#181818;stroke-width:0.5;" width="102" x="562" y="330"/><ellipse cx="577" cy="346" fill="#B4A7E5" rx="11" ry="11" style="stroke:#181818;stroke-width:1.0;"/><path d="M577.9531,342.7813 L579.6719,342.7813 C580.0625,342.7813 580.25,342.75 580.375,342.6719 C580.6406,342.5156 580.7813,342.2344 580.7813,341.9375 C580.7813,341.6719 580.6719,341.4063 580.4375,341.2344 C580.2656,341.125 580.125,341.0938 579.6719,341.0938 L574.5313,341.0938 C574.0938,341.0938 573.9688,341.1094 573.8125,341.2031 C573.5625,341.3594 573.4063,341.6563 573.4063,341.9375 C573.4063,342.2188 573.5469,342.4688 573.7656,342.6406 C573.9219,342.75 574.1094,342.7813 574.5313,342.7813 L576.25,342.7813 L576.25,349.2969 L574.5313,349.2969 C574.0938,349.2969 573.9688,349.3125 573.8125,349.4219 C573.5625,349.5781 573.4063,349.8594 573.4063,350.1563 C573.4063,350.4063 573.5469,350.6719 573.7656,350.8281 C573.9219,350.9531 574.125,351 574.5313,351 L579.6719,351 C580.4219,351 580.7813,350.7188 580.7813,350.1563 C580.7813,349.875 580.6719,349.625 580.4375,349.4531 C580.2656,349.3281 580.125,349.2969 579.6719,349.2969 L577.9531,349.2969 L577.9531,342.7813 Z " fill="#000000"/><text fill="#000000" font-family="sans-serif" font-size="14" font-style="italic" lengthAdjust="spacing" textLength="70" x="591" y="350.8467">Parseable</text><line style="stroke:#181818;stroke-width:0.5;" x1="563" x2="663" y1="362" y2="362"/><line style="stroke:#181818;stroke-width:0.5;" x1="563" x2="663" y1="370" y2="370"/></g><!--class AutomataFinito--><g id="elem_AutomataFinito"><rect codeLine="47" fill="#F1F1F1" height="48" id="AutomataFinito" rx="2.5" ry="2.5" style="stroke:#181818;stroke-width:0.5;" width="144" x="541" y="454"/><ellipse cx="556" cy="470" fill="#ADD1B2" rx="11" ry="11" style="stroke:#181818;stroke-width:1.0;"/><path d="M558.3438,465.6719 C557.4063,465.2344 556.8125,465.0938 555.9375,465.0938 C553.3125,465.0938 551.3125,467.1719 551.3125,469.8906 L551.3125,471.0156 C551.3125,473.5938 553.4219,475.4844 556.3125,475.4844 C557.5313,475.4844 558.6875,475.1875 559.4375,474.6406 C560.0156,474.2344 560.3438,473.7813 560.3438,473.3906 C560.3438,472.9375 559.9531,472.5469 559.4844,472.5469 C559.2656,472.5469 559.0625,472.625 558.875,472.8125 C558.4219,473.2969 558.4219,473.2969 558.2344,473.3906 C557.8125,473.6563 557.125,473.7813 556.3594,473.7813 C554.3125,473.7813 553.0156,472.6875 553.0156,470.9844 L553.0156,469.8906 C553.0156,468.1094 554.2656,466.7969 556,466.7969 C556.5781,466.7969 557.1875,466.9531 557.6563,467.2031 C558.1406,467.4844 558.3125,467.7031 558.4063,468.1094 C558.4688,468.5156 558.5,468.6406 558.6406,468.7656 C558.7813,468.9063 559.0156,469.0156 559.2344,469.0156 C559.5,469.0156 559.7656,468.875 559.9375,468.6563 C560.0469,468.5 560.0781,468.3125 560.0781,467.8906 L560.0781,466.4688 C560.0781,466.0313 560.0625,465.9063 559.9688,465.75 C559.8125,465.4844 559.5313,465.3438 559.2344,465.3438 C558.9375,465.3438 558.7344,465.4375 558.5156,465.75 L558.3438,465.6719 Z " fill="#000000"/><text fill="#000000" font-family="sans-serif" font-size="14" lengthAdjust="spacing" textLength="112" x="570" y="474.8467">AutomataFinito</text><line style="stroke:#181818;stroke-width:0.5;" x1="542" x2="684" y1="486" y2="486"/><line style="stroke:#181818;stroke-width:0.5;" x1="542" x2="684" y1="494" y2="494"/></g><!--class Error--><g id="elem_Error"><rect codeLine="64" fill="#F1F1F1" height="48" id="Error" rx="2.5" ry="2.5" style="stroke:#181818;stroke-width:0.5;" width="68" x="929" y="617"/><ellipse cx="944" cy="633" fill="#ADD1B2" rx="11" ry="11" style="stroke:#181818;stroke-width:1.0;"/><path d="M946.3438,628.6719 C945.4063,628.2344 944.8125,628.0938 943.9375,628.0938 C941.3125,628.0938 939.3125,630.1719 939.3125,632.8906 L939.3125,634.0156 C939.3125,636.5938 941.4219,638.4844 944.3125,638.4844 C945.5313,638.4844 946.6875,638.1875 947.4375,637.6406 C948.0156,637.2344 948.3438,636.7813 948.3438,636.3906 C948.3438,635.9375 947.9531,635.5469 947.4844,635.5469 C947.2656,635.5469 947.0625,635.625 946.875,635.8125 C946.4219,636.2969 946.4219,636.2969 946.2344,636.3906 C945.8125,636.6563 945.125,636.7813 944.3594,636.7813 C942.3125,636.7813 941.0156,635.6875 941.0156,633.9844 L941.0156,632.8906 C941.0156,631.1094 942.2656,629.7969 944,629.7969 C944.5781,629.7969 945.1875,629.9531 945.6563,630.2031 C946.1406,630.4844 946.3125,630.7031 946.4063,631.1094 C946.4688,631.5156 946.5,631.6406 946.6406,631.7656 C946.7813,631.9063 947.0156,632.0156 947.2344,632.0156 C947.5,632.0156 947.7656,631.875 947.9375,631.6563 C948.0469,631.5 948.0781,631.3125 948.0781,630.8906 L948.0781,629.4688 C948.0781,629.0313 948.0625,628.9063 947.9688,628.75 C947.8125,628.4844 947.5313,628.3438 947.2344,628.3438 C946.9375,628.3438 946.7344,628.4375 946.5156,628.75 L946.3438,628.6719 Z " fill="#000000"/><text fill="#000000" font-family="sans-serif" font-size="14" lengthAdjust="spacing" textLength="36" x="958" y="637.8467">Error</text><line style="stroke:#181818;stroke-width:0.5;" x1="930" x2="996" y1="649" y2="649"/><line style="stroke:#181818;stroke-width:0.5;" x1="930" x2="996" y1="657" y2="657"/></g><!--class ArbolSintactico--><g id="elem_ArbolSintactico"><rect codeLine="68" fill="#F1F1F1" height="48" id="ArbolSintactico" rx="2.5" ry="2.5" style="stroke:#181818;stroke-width:0.5;" width="144" x="585" y="617"/><ellipse cx="600" cy="633" fill="#ADD1B2" rx="11" ry="11" style="stroke:#181818;stroke-width:1.0;"/><path d="M602.3438,628.6719 C601.4063,628.2344 600.8125,628.0938 599.9375,628.0938 C597.3125,628.0938 595.3125,630.1719 595.3125,632.8906 L595.3125,634.0156 C595.3125,636.5938 597.4219,638.4844 600.3125,638.4844 C601.5313,638.4844 602.6875,638.1875 603.4375,637.6406 C604.0156,637.2344 604.3438,636.7813 604.3438,636.3906 C604.3438,635.9375 603.9531,635.5469 603.4844,635.5469 C603.2656,635.5469 603.0625,635.625 602.875,635.8125 C602.4219,636.2969 602.4219,636.2969 602.2344,636.3906 C601.8125,636.6563 601.125,636.7813 600.3594,636.7813 C598.3125,636.7813 597.0156,635.6875 597.0156,633.9844 L597.0156,632.8906 C597.0156,631.1094 598.2656,629.7969 600,629.7969 C600.5781,629.7969 601.1875,629.9531 601.6563,630.2031 C602.1406,630.4844 602.3125,630.7031 602.4063,631.1094 C602.4688,631.5156 602.5,631.6406 602.6406,631.7656 C602.7813,631.9063 603.0156,632.0156 603.2344,632.0156 C603.5,632.0156 603.7656,631.875 603.9375,631.6563 C604.0469,631.5 604.0781,631.3125 604.0781,630.8906 L604.0781,629.4688 C604.0781,629.0313 604.0625,628.9063 603.9688,628.75 C603.8125,628.4844 603.5313,628.3438 603.2344,628.3438 C602.9375,628.3438 602.7344,628.4375 602.5156,628.75 L602.3438,628.6719 Z " fill="#000000"/><text fill="#000000" font-family="sans-serif" font-size="14" lengthAdjust="spacing" textLength="112" x="614" y="637.8467">ArbolSintactico</text><line style="stroke:#181818;stroke-width:0.5;" x1="586" x2="728" y1="649" y2="649"/><line style="stroke:#181818;stroke-width:0.5;" x1="586" x2="728" y1="657" y2="657"/></g><!--class TablaSimbolo--><g id="elem_TablaSimbolo"><rect codeLine="72" fill="#F1F1F1" height="48" id="TablaSimbolo" rx="2.5" ry="2.5" style="stroke:#181818;stroke-width:0.5;" width="130" x="764" y="617"/><ellipse cx="779" cy="633" fill="#ADD1B2" rx="11" ry="11" style="stroke:#181818;stroke-width:1.0;"/><path d="M781.3438,628.6719 C780.4063,628.2344 779.8125,628.0938 778.9375,628.0938 C776.3125,628.0938 774.3125,630.1719 774.3125,632.8906 L774.3125,634.0156 C774.3125,636.5938 776.4219,638.4844 779.3125,638.4844 C780.5313,638.4844 781.6875,638.1875 782.4375,637.6406 C783.0156,637.2344 783.3438,636.7813 783.3438,636.3906 C783.3438,635.9375 782.9531,635.5469 782.4844,635.5469 C782.2656,635.5469 782.0625,635.625 781.875,635.8125 C781.4219,636.2969 781.4219,636.2969 781.2344,636.3906 C780.8125,636.6563 780.125,636.7813 779.3594,636.7813 C777.3125,636.7813 776.0156,635.6875 776.0156,633.9844 L776.0156,632.8906 C776.0156,631.1094 777.2656,629.7969 779,629.7969 C779.5781,629.7969 780.1875,629.9531 780.6563,630.2031 C781.1406,630.4844 781.3125,630.7031 781.4063,631.1094 C781.4688,631.5156 781.5,631.6406 781.6406,631.7656 C781.7813,631.9063 782.0156,632.0156 782.2344,632.0156 C782.5,632.0156 782.7656,631.875 782.9375,631.6563 C783.0469,631.5 783.0781,631.3125 783.0781,630.8906 L783.0781,629.4688 C783.0781,629.0313 783.0625,628.9063 782.9688,628.75 C782.8125,628.4844 782.5313,628.3438 782.2344,628.3438 C781.9375,628.3438 781.7344,628.4375 781.5156,628.75 L781.3438,628.6719 Z " fill="#000000"/><text fill="#000000" font-family="sans-serif" font-size="14" lengthAdjust="spacing" textLength="98" x="793" y="637.8467">TablaSimbolo</text><line style="stroke:#181818;stroke-width:0.5;" x1="765" x2="893" y1="649" y2="649"/><line style="stroke:#181818;stroke-width:0.5;" x1="765" x2="893" y1="657" y2="657"/></g><!--class Token--><g id="elem_Token"><rect codeLine="76" fill="#F1F1F1" height="64.2969" id="Token" rx="2.5" ry="2.5" style="stroke:#181818;stroke-width:0.5;" width="182" x="368" y="609"/><ellipse cx="432.25" cy="625" fill="#ADD1B2" rx="11" ry="11" style="stroke:#181818;stroke-width:1.0;"/><path d="M434.5938,620.6719 C433.6563,620.2344 433.0625,620.0938 432.1875,620.0938 C429.5625,620.0938 427.5625,622.1719 427.5625,624.8906 L427.5625,626.0156 C427.5625,628.5938 429.6719,630.4844 432.5625,630.4844 C433.7813,630.4844 434.9375,630.1875 435.6875,629.6406 C436.2656,629.2344 436.5938,628.7813 436.5938,628.3906 C436.5938,627.9375 436.2031,627.5469 435.7344,627.5469 C435.5156,627.5469 435.3125,627.625 435.125,627.8125 C434.6719,628.2969 434.6719,628.2969 434.4844,628.3906 C434.0625,628.6563 433.375,628.7813 432.6094,628.7813 C430.5625,628.7813 429.2656,627.6875 429.2656,625.9844 L429.2656,624.8906 C429.2656,623.1094 430.5156,621.7969 432.25,621.7969 C432.8281,621.7969 433.4375,621.9531 433.9063,622.2031 C434.3906,622.4844 434.5625,622.7031 434.6563,623.1094 C434.7188,623.5156 434.75,623.6406 434.8906,623.7656 C435.0313,623.9063 435.2656,624.0156 435.4844,624.0156 C435.75,624.0156 436.0156,623.875 436.1875,623.6563 C436.2969,623.5 436.3281,623.3125 436.3281,622.8906 L436.3281,621.4688 C436.3281,621.0313 436.3125,620.9063 436.2188,620.75 C436.0625,620.4844 435.7813,620.3438 435.4844,620.3438 C435.1875,620.3438 434.9844,620.4375 434.7656,620.75 L434.5938,620.6719 Z " fill="#000000"/><text fill="#000000" font-family="sans-serif" font-size="14" lengthAdjust="spacing" textLength="45" x="452.75" y="629.8467">Token</text><line style="stroke:#181818;stroke-width:0.5;" x1="369" x2="549" y1="641" y2="641"/><rect fill="none" height="6" style="stroke:#C82930;stroke-width:1.0;" width="6" x="376" y="651.6484"/><text fill="#000000" font-family="sans-serif" font-size="14" lengthAdjust="spacing" textLength="156" x="388" y="657.9951">TipoToken tipoToken</text><line style="stroke:#181818;stroke-width:0.5;" x1="369" x2="549" y1="665.2969" y2="665.2969"/></g><!--class TipoToken--><g id="elem_TipoToken"><rect codeLine="80" fill="#F1F1F1" height="48" id="TipoToken" rx="2.5" ry="2.5" style="stroke:#181818;stroke-width:0.5;" width="109" x="404.5" y="733"/><ellipse cx="419.5" cy="749" fill="#EB937F" rx="11" ry="11" style="stroke:#181818;stroke-width:1.0;"/><path d="M418.2969,749.875 L419.75,749.875 L419.75,749.9844 C419.75,750.3906 419.7813,750.5469 419.8594,750.7031 C420.0156,750.9531 420.2969,751.1094 420.5938,751.1094 C420.8438,751.1094 421.1094,750.9688 421.2656,750.75 C421.3906,750.5938 421.4219,750.4375 421.4219,749.9844 L421.4219,748.0625 C421.4219,747.9063 421.4219,747.8594 421.4063,747.7031 C421.3438,747.2344 421.0313,746.9219 420.5781,746.9219 C420.3281,746.9219 420.0625,747.0625 419.8906,747.2813 C419.7813,747.4531 419.75,747.6094 419.75,748.0625 L419.75,748.1875 L418.2969,748.1875 L418.2969,745.7813 L422.2813,745.7813 L422.2813,746.6406 C422.2813,747.0469 422.3125,747.2188 422.3906,747.375 C422.5625,747.625 422.8438,747.7813 423.125,747.7813 C423.3906,747.7813 423.6563,747.6406 423.8281,747.4219 C423.9375,747.25 423.9688,747.1094 423.9688,746.6406 L423.9688,744.0938 L416.3438,744.0938 C415.9063,744.0938 415.7813,744.1094 415.625,744.2031 C415.375,744.3594 415.2188,744.6563 415.2188,744.9375 C415.2188,745.2188 415.3594,745.4688 415.5781,745.6406 C415.7344,745.75 415.9219,745.7813 416.3438,745.7813 L416.5938,745.7813 L416.5938,752.2969 L416.3438,752.2969 C415.9375,752.2969 415.7813,752.3125 415.625,752.4219 C415.375,752.5938 415.2188,752.8594 415.2188,753.1563 C415.2188,753.4219 415.3594,753.6719 415.5781,753.8281 C415.7188,753.9531 415.9531,754 416.3438,754 L424.3438,754 L424.3438,751.4219 C424.3438,750.9844 424.3125,750.8438 424.2344,750.6875 C424.0625,750.4375 423.7813,750.2813 423.5,750.2813 C423.2344,750.2813 422.9688,750.3906 422.7969,750.6406 C422.6875,750.7969 422.6563,750.9375 422.6563,751.4219 L422.6563,752.2969 L418.2969,752.2969 L418.2969,749.875 Z " fill="#000000"/><text fill="#000000" font-family="sans-serif" font-size="14" lengthAdjust="spacing" textLength="77" x="433.5" y="753.8467">TipoToken</text><line style="stroke:#181818;stroke-width:0.5;" x1="405.5" x2="512.5" y1="765" y2="765"/><line style="stroke:#181818;stroke-width:0.5;" x1="405.5" x2="512.5" y1="773" y2="773"/></g><!--class App--><g id="elem_App"><rect codeLine="1" fill="#F1F1F1" height="48" id="App" rx="2.5" ry="2.5" style="stroke:#181818;stroke-width:0.5;" width="62" x="690" y="7"/><ellipse cx="705" cy="23" fill="#ADD1B2" rx="11" ry="11" style="stroke:#181818;stroke-width:1.0;"/><path d="M707.3438,18.6719 C706.4063,18.2344 705.8125,18.0938 704.9375,18.0938 C702.3125,18.0938 700.3125,20.1719 700.3125,22.8906 L700.3125,24.0156 C700.3125,26.5938 702.4219,28.4844 705.3125,28.4844 C706.5313,28.4844 707.6875,28.1875 708.4375,27.6406 C709.0156,27.2344 709.3438,26.7813 709.3438,26.3906 C709.3438,25.9375 708.9531,25.5469 708.4844,25.5469 C708.2656,25.5469 708.0625,25.625 707.875,25.8125 C707.4219,26.2969 707.4219,26.2969 707.2344,26.3906 C706.8125,26.6563 706.125,26.7813 705.3594,26.7813 C703.3125,26.7813 702.0156,25.6875 702.0156,23.9844 L702.0156,22.8906 C702.0156,21.1094 703.2656,19.7969 705,19.7969 C705.5781,19.7969 706.1875,19.9531 706.6563,20.2031 C707.1406,20.4844 707.3125,20.7031 707.4063,21.1094 C707.4688,21.5156 707.5,21.6406 707.6406,21.7656 C707.7813,21.9063 708.0156,22.0156 708.2344,22.0156 C708.5,22.0156 708.7656,21.875 708.9375,21.6563 C709.0469,21.5 709.0781,21.3125 709.0781,20.8906 L709.0781,19.4688 C709.0781,19.0313 709.0625,18.9063 708.9688,18.75 C708.8125,18.4844 708.5313,18.3438 708.2344,18.3438 C707.9375,18.3438 707.7344,18.4375 707.5156,18.75 L707.3438,18.6719 Z " fill="#000000"/><text fill="#000000" font-family="sans-serif" font-size="14" lengthAdjust="spacing" textLength="30" x="719" y="27.8467">App</text><line style="stroke:#181818;stroke-width:0.5;" x1="691" x2="751" y1="39" y2="39"/><line style="stroke:#181818;stroke-width:0.5;" x1="691" x2="751" y1="47" y2="47"/></g><!--reverse link Escaneable to AutomataPila--><g id="link_Escaneable_AutomataPila"><path codeLine="38" d="M422.9864,396.2286 C422.4524,417.9376 422.102,432.172 421.569,453.852 " fill="none" id="Escaneable-backto-AutomataPila" style="stroke:#181818;stroke-width:1.0;"/><polygon fill="none" points="423.429,378.234,416.9882,396.081,428.9846,396.3761,423.429,378.234" style="stroke:#181818;stroke-width:1.0;"/></g><!--reverse link Escaneable to ControladorArbolSintactico--><g id="link_Escaneable_ControladorArbolSintactico"><path codeLine="39" d="M370.2664,383.7524 C334.3764,402.9564 293.546,424.805 254.049,445.939 " fill="none" id="Escaneable-backto-ControladorArbolSintactico" style="stroke:#181818;stroke-width:1.0;"/><polygon fill="#181818" points="380.847,378.091,373.6696,377.3949,370.2664,383.7524,377.4439,384.4486,380.847,378.091" style="stroke:#181818;stroke-width:1.0;"/></g><!--reverse link Parseable to AutomataFinito--><g id="link_Parseable_AutomataFinito"><path codeLine="51" d="M613,396.234 C613,417.943 613,432.172 613,453.852 " fill="none" id="Parseable-backto-AutomataFinito" style="stroke:#181818;stroke-width:1.0;"/><polygon fill="none" points="613,378.234,607,396.234,619,396.234,613,378.234" style="stroke:#181818;stroke-width:1.0;"/></g><!--reverse link ControlAnalizador to Parseable--><g id="link_ControlAnalizador_Parseable"><path codeLine="54" d="M672.7415,271.9621 C655.4545,295.4121 643.42,311.736 630.06,329.859 " fill="none" id="ControlAnalizador-backto-Parseable" style="stroke:#181818;stroke-width:1.0;"/><polygon fill="#181818" points="679.862,262.303,673.082,264.759,672.7415,271.9621,679.5214,269.5061,679.862,262.303" style="stroke:#181818;stroke-width:1.0;"/></g><!--reverse link ControlAnalizador to Escaneable--><g id="link_ControlAnalizador_Escaneable"><path codeLine="55" d="M567.52,266.1725 C549.274,274.2715 542.011,278.052 525,287 C500.9,299.677 475.232,316.499 455.802,329.987 " fill="none" id="ControlAnalizador-backto-Escaneable" style="stroke:#181818;stroke-width:1.0;"/><polygon fill="#181818" points="578.488,261.304,571.3812,260.0822,567.52,266.1725,574.6268,267.3943,578.488,261.304" style="stroke:#181818;stroke-width:1.0;"/></g><!--reverse link ControlAnalizador to ControlTablaSimbolo--><g id="link_ControlAnalizador_ControlTablaSimbolo"><path codeLine="56" d="M769.2586,271.9621 C784.1616,292.1781 793.331,304.616 806.101,321.938 " fill="none" id="ControlAnalizador-backto-ControlTablaSimbolo" style="stroke:#181818;stroke-width:1.0;"/><polygon fill="#181818" points="762.138,262.303,762.4786,269.5061,769.2586,271.9621,768.918,264.759,762.138,262.303" style="stroke:#181818;stroke-width:1.0;"/></g><!--reverse link ControlAnalizador to ControladorError--><g id="link_ControlAnalizador_ControladorError"><path codeLine="57" d="M875.0598,251.3262 C907.1208,262.5252 929.14,271.864 959,287 C978.031,296.647 997.57,309.76 1013.88,321.756 " fill="none" id="ControlAnalizador-backto-ControladorError" style="stroke:#181818;stroke-width:1.0;"/><polygon fill="#181818" points="863.731,247.369,868.0763,253.1238,875.0598,251.3262,870.7144,245.5713,863.731,247.369" style="stroke:#181818;stroke-width:1.0;"/></g><!--link Escaneable to Parseable--><g id="link_Escaneable_Parseable"><path codeLine="59" d="M481.217,354 C508.071,354 528.925,354 555.78,354 " fill="none" id="Escaneable-to-Parseable" style="stroke:#181818;stroke-width:1.0;"/><polygon fill="#181818" points="561.78,354,552.78,350,556.78,354,552.78,358,561.78,354" style="stroke:#181818;stroke-width:1.0;"/></g><!--reverse link Token to TipoToken--><g id="link_Token_TipoToken"><path codeLine="84" d="M459,685.151 C459,704.005 459,715.647 459,732.845 " fill="none" id="Token-backto-TipoToken" style="stroke:#181818;stroke-width:1.0;"/><polygon fill="#181818" points="459,673.151,455,679.151,459,685.151,463,679.151,459,673.151" style="stroke:#181818;stroke-width:1.0;"/></g><!--reverse link ControlTablaSimbolo to TablaSimbolo--><g id="link_ControlTablaSimbolo_TablaSimbolo"><path codeLine="88" d="M829,398.043 C829,455.606 829,565.681 829,616.761 " fill="none" id="ControlTablaSimbolo-backto-TablaSimbolo" style="stroke:#181818;stroke-width:1.0;"/><polygon fill="#181818" points="829,386.043,825,392.043,829,398.043,833,392.043,829,386.043" style="stroke:#181818;stroke-width:1.0;"/></g><!--reverse link ControladorError to Error--><g id="link_ControladorError_Error"><path codeLine="89" d="M1039.586,397.4859 C1021.406,455.0489 986.469,565.681 970.339,616.761 " fill="none" id="ControladorError-backto-Error" style="stroke:#181818;stroke-width:1.0;"/><polygon fill="#181818" points="1043.2,386.043,1037.5787,390.5598,1039.586,397.4859,1045.2073,392.9691,1043.2,386.043" style="stroke:#181818;stroke-width:1.0;"/></g><!--reverse link ControladorArbolSintactico to ArbolSintactico--><g id="link_ControladorArbolSintactico_ArbolSintactico"><path codeLine="91" d="M249.4467,516.5467 C276.6567,534.1597 303.19,548.093 339,558 C387.863,571.518 519.581,548.064 567,566 C594.813,576.52 620.36,599.358 637.072,616.899 " fill="none" id="ControladorArbolSintactico-backto-ArbolSintactico" style="stroke:#181818;stroke-width:1.0;"/><polygon fill="#181818" points="239.373,510.026,242.2363,516.6443,249.4467,516.5467,246.5834,509.9284,239.373,510.026" style="stroke:#181818;stroke-width:1.0;"/></g><!--link App to ControlAnalizador--><g id="link_App_ControlAnalizador"><path codeLine="95" d="M721,55.264 C721,79.083 721,110.992 721,142.641 " fill="none" id="App-to-ControlAnalizador" style="stroke:#181818;stroke-width:1.0;stroke-dasharray:7.0,7.0;"/><polygon fill="#181818" points="721,148.641,725,139.641,721,143.641,717,139.641,721,148.641" style="stroke:#181818;stroke-width:1.0;"/></g><!--SRC=[bLNRRiCW37tFL_1SYNv2fMZgdYkrF-0Irg4c416YIjloxyCb5sx9EXuY8Xzyx8DjM0rTHygs9Tz5CHH52-mEDqv0GYs-e58Q3SIkoSAKD5hLQEBTPCJ5dgxUdBdqpnDlKNBi64WErveJt4ck8y09TEViBUvYyyXmiGWuY-QgQaMCzzFbyHZBKMiR4CVl31fMCWZynpcial_fTWaZqMKxk4d_KJDV-In9gMqyPo4DC2DOd8AZZ34G_WSdXf3FWhZ-0CQz-un26d8HbhrH3HWuYHh8ze40IlkM_XmyiW3grTIEqWqPjfHrrHO9jUIvbEL_ydmNKXZrOgOZUCnr9im5dVOP9fuUoUCoCkQ1cMPuxSHSvql8tYLHBMwVXiOv3k6eQLJ5RJ-dGsPgeFLkIwj_7Hjr-WPGtRbCPu5ebREOQPTpmMNVUDWyZxEXZ9V4bwzGRaRjQAKUCfnDFdYPFCyAMEvcOsWWCkuWV2RmmTWZtVwGbi4l]--></g></svg>