<?xml version="1.0" encoding="us-ascii" standalone="no"?><svg xmlns="http://www.w3.org/2000/svg" xmlns:xlink="http://www.w3.org/1999/xlink" contentStyleType="text/css" height="975px" preserveAspectRatio="none" style="width:1891px;height:975px;background:#FFFFFF;" version="1.1" viewBox="0 0 1891 975" width="1891px" zoomAndPan="magnify"><defs/><g><!--cluster analizador--><g id="cluster_analizador"><path d="M8.5,71 L95.5,71 A3.75,3.75 0 0 1 98,73.5 L105,93.2969 L1881.5,93.2969 A2.5,2.5 0 0 1 1884,95.7969 L1884,965.5 A2.5,2.5 0 0 1 1881.5,968 L8.5,968 A2.5,2.5 0 0 1 6,965.5 L6,73.5 A2.5,2.5 0 0 1 8.5,71 " fill="none" style="stroke:#000000;stroke-width:1.5;"/><line style="stroke:#000000;stroke-width:1.5;" x1="6" x2="105" y1="93.2969" y2="93.2969"/><text fill="#000000" font-family="sans-serif" font-size="14" font-weight="bold" lengthAdjust="spacing" textLength="86" x="10" y="85.9951">analizador</text></g><!--cluster controladores--><g id="cluster_controladores"><path d="M32.5,114 L147.5,114 A3.75,3.75 0 0 1 150,116.5 L157,136.2969 L1857.5,136.2969 A2.5,2.5 0 0 1 1860,138.7969 L1860,694.5 A2.5,2.5 0 0 1 1857.5,697 L32.5,697 A2.5,2.5 0 0 1 30,694.5 L30,116.5 A2.5,2.5 0 0 1 32.5,114 " fill="none" style="stroke:#000000;stroke-width:1.5;"/><line style="stroke:#000000;stroke-width:1.5;" x1="30" x2="157" y1="136.2969" y2="136.2969"/><text fill="#000000" font-family="sans-serif" font-size="14" font-weight="bold" lengthAdjust="spacing" textLength="114" x="34" y="128.9951">controladores</text></g><!--cluster scanner--><g id="cluster_scanner"><path d="M56.5,385 L121.5,385 A3.75,3.75 0 0 1 124,387.5 L131,407.2969 L724.5,407.2969 A2.5,2.5 0 0 1 727,409.7969 L727,670.5 A2.5,2.5 0 0 1 724.5,673 L56.5,673 A2.5,2.5 0 0 1 54,670.5 L54,387.5 A2.5,2.5 0 0 1 56.5,385 " fill="none" style="stroke:#000000;stroke-width:1.5;"/><line style="stroke:#000000;stroke-width:1.5;" x1="54" x2="131" y1="407.2969" y2="407.2969"/><text fill="#000000" font-family="sans-serif" font-size="14" font-weight="bold" lengthAdjust="spacing" textLength="64" x="58" y="399.9951">scanner</text></g><!--cluster parser--><g id="cluster_parser"><path d="M753.5,401 L806.5,401 A3.75,3.75 0 0 1 809,403.5 L816,423.2969 L1409.5,423.2969 A2.5,2.5 0 0 1 1412,425.7969 L1412,662.5 A2.5,2.5 0 0 1 1409.5,665 L753.5,665 A2.5,2.5 0 0 1 751,662.5 L751,403.5 A2.5,2.5 0 0 1 753.5,401 " fill="none" style="stroke:#000000;stroke-width:1.5;"/><line style="stroke:#000000;stroke-width:1.5;" x1="751" x2="816" y1="423.2969" y2="423.2969"/><text fill="#000000" font-family="sans-serif" font-size="14" font-weight="bold" lengthAdjust="spacing" textLength="52" x="755" y="415.9951">parser</text></g><!--cluster modelos--><g id="cluster_modelos"><path d="M1068.5,721 L1137.5,721 A3.75,3.75 0 0 1 1140,723.5 L1147,743.2969 L1724.5,743.2969 A2.5,2.5 0 0 1 1727,745.7969 L1727,941.5 A2.5,2.5 0 0 1 1724.5,944 L1068.5,944 A2.5,2.5 0 0 1 1066,941.5 L1066,723.5 A2.5,2.5 0 0 1 1068.5,721 " fill="none" style="stroke:#000000;stroke-width:1.5;"/><line style="stroke:#000000;stroke-width:1.5;" x1="1066" x2="1147" y1="743.2969" y2="743.2969"/><text fill="#000000" font-family="sans-serif" font-size="14" font-weight="bold" lengthAdjust="spacing" textLength="68" x="1070" y="735.9951">modelos</text></g><!--class ControlAnalizador--><g id="elem_ControlAnalizador"><rect codeLine="9" fill="#F1F1F1" height="210.9688" id="ControlAnalizador" rx="2.5" ry="2.5" style="stroke:#181818;stroke-width:0.5;" width="294" x="1017" y="149"/><ellipse cx="1095.25" cy="165" fill="#ADD1B2" rx="11" ry="11" style="stroke:#181818;stroke-width:1.0;"/><path d="M1097.5938,160.6719 C1096.6563,160.2344 1096.0625,160.0938 1095.1875,160.0938 C1092.5625,160.0938 1090.5625,162.1719 1090.5625,164.8906 L1090.5625,166.0156 C1090.5625,168.5938 1092.6719,170.4844 1095.5625,170.4844 C1096.7813,170.4844 1097.9375,170.1875 1098.6875,169.6406 C1099.2656,169.2344 1099.5938,168.7813 1099.5938,168.3906 C1099.5938,167.9375 1099.2031,167.5469 1098.7344,167.5469 C1098.5156,167.5469 1098.3125,167.625 1098.125,167.8125 C1097.6719,168.2969 1097.6719,168.2969 1097.4844,168.3906 C1097.0625,168.6563 1096.375,168.7813 1095.6094,168.7813 C1093.5625,168.7813 1092.2656,167.6875 1092.2656,165.9844 L1092.2656,164.8906 C1092.2656,163.1094 1093.5156,161.7969 1095.25,161.7969 C1095.8281,161.7969 1096.4375,161.9531 1096.9063,162.2031 C1097.3906,162.4844 1097.5625,162.7031 1097.6563,163.1094 C1097.7188,163.5156 1097.75,163.6406 1097.8906,163.7656 C1098.0313,163.9063 1098.2656,164.0156 1098.4844,164.0156 C1098.75,164.0156 1099.0156,163.875 1099.1875,163.6563 C1099.2969,163.5 1099.3281,163.3125 1099.3281,162.8906 L1099.3281,161.4688 C1099.3281,161.0313 1099.3125,160.9063 1099.2188,160.75 C1099.0625,160.4844 1098.7813,160.3438 1098.4844,160.3438 C1098.1875,160.3438 1097.9844,160.4375 1097.7656,160.75 L1097.5938,160.6719 Z " fill="#000000"/><text fill="#000000" font-family="sans-serif" font-size="14" lengthAdjust="spacing" textLength="129" x="1115.75" y="169.8467">ControlAnalizador</text><line style="stroke:#181818;stroke-width:0.5;" x1="1018" x2="1310" y1="181" y2="181"/><rect fill="none" height="6" style="stroke:#C82930;stroke-width:1.0;" width="6" x="1025" y="191.6484"/><text fill="#000000" font-family="sans-serif" font-size="14" lengthAdjust="spacing" textLength="141" x="1037" y="197.9951">Escaneable scanner</text><rect fill="none" height="6" style="stroke:#C82930;stroke-width:1.0;" width="6" x="1025" y="207.9453"/><text fill="#000000" font-family="sans-serif" font-size="14" lengthAdjust="spacing" textLength="120" x="1037" y="214.292">Parseable parser</text><rect fill="none" height="6" style="stroke:#C82930;stroke-width:1.0;" width="6" x="1025" y="224.2422"/><text fill="#000000" font-family="sans-serif" font-size="14" lengthAdjust="spacing" textLength="259" x="1037" y="230.5889">ControlTablaSimbolo tablaSimbolos</text><rect fill="none" height="6" style="stroke:#C82930;stroke-width:1.0;" width="6" x="1025" y="240.5391"/><text fill="#000000" font-family="sans-serif" font-size="14" lengthAdjust="spacing" textLength="162" x="1037" y="246.8857">ControladorError error</text><line style="stroke:#181818;stroke-width:0.5;" x1="1018" x2="1310" y1="254.1875" y2="254.1875"/><ellipse cx="1028" cy="267.8359" fill="#84BE84" rx="3" ry="3" style="stroke:#038048;stroke-width:1.0;"/><text fill="#000000" font-family="sans-serif" font-size="14" lengthAdjust="spacing" textLength="232" x="1037" y="271.1826">setFuente(String path): boolean</text><ellipse cx="1028" cy="284.1328" fill="#84BE84" rx="3" ry="3" style="stroke:#038048;stroke-width:1.0;"/><text fill="#000000" font-family="sans-serif" font-size="14" lengthAdjust="spacing" textLength="170" x="1037" y="287.4795">hacerAnalisis(): boolean</text><ellipse cx="1028" cy="300.4297" fill="#84BE84" rx="3" ry="3" style="stroke:#038048;stroke-width:1.0;"/><text fill="#000000" font-family="sans-serif" font-size="14" lengthAdjust="spacing" textLength="268" x="1037" y="303.7764">getArbolSintactico(): ArbolSintactico</text><ellipse cx="1028" cy="316.7266" fill="#84BE84" rx="3" ry="3" style="stroke:#038048;stroke-width:1.0;"/><text fill="#000000" font-family="sans-serif" font-size="14" lengthAdjust="spacing" textLength="129" x="1037" y="320.0732">esError(): boolean</text><ellipse cx="1028" cy="333.0234" fill="#84BE84" rx="3" ry="3" style="stroke:#038048;stroke-width:1.0;"/><text fill="#000000" font-family="sans-serif" font-size="14" lengthAdjust="spacing" textLength="132" x="1037" y="336.3701">getErrores(): Error</text><text fill="#000000" font-family="sans-serif" font-size="14" lengthAdjust="spacing" textLength="247" x="1037" y="352.667">getTablaSimbolos(): TablaSimbolo</text></g><!--class ControlTablaSimbolo--><g id="elem_ControlTablaSimbolo"><rect codeLine="22" fill="#F1F1F1" height="64.2969" id="ControlTablaSimbolo" rx="2.5" ry="2.5" style="stroke:#181818;stroke-width:0.5;" width="224" x="1431" y="444.5"/><ellipse cx="1464" cy="460.5" fill="#ADD1B2" rx="11" ry="11" style="stroke:#181818;stroke-width:1.0;"/><path d="M1466.3438,456.1719 C1465.4063,455.7344 1464.8125,455.5938 1463.9375,455.5938 C1461.3125,455.5938 1459.3125,457.6719 1459.3125,460.3906 L1459.3125,461.5156 C1459.3125,464.0938 1461.4219,465.9844 1464.3125,465.9844 C1465.5313,465.9844 1466.6875,465.6875 1467.4375,465.1406 C1468.0156,464.7344 1468.3438,464.2813 1468.3438,463.8906 C1468.3438,463.4375 1467.9531,463.0469 1467.4844,463.0469 C1467.2656,463.0469 1467.0625,463.125 1466.875,463.3125 C1466.4219,463.7969 1466.4219,463.7969 1466.2344,463.8906 C1465.8125,464.1563 1465.125,464.2813 1464.3594,464.2813 C1462.3125,464.2813 1461.0156,463.1875 1461.0156,461.4844 L1461.0156,460.3906 C1461.0156,458.6094 1462.2656,457.2969 1464,457.2969 C1464.5781,457.2969 1465.1875,457.4531 1465.6563,457.7031 C1466.1406,457.9844 1466.3125,458.2031 1466.4063,458.6094 C1466.4688,459.0156 1466.5,459.1406 1466.6406,459.2656 C1466.7813,459.4063 1467.0156,459.5156 1467.2344,459.5156 C1467.5,459.5156 1467.7656,459.375 1467.9375,459.1563 C1468.0469,459 1468.0781,458.8125 1468.0781,458.3906 L1468.0781,456.9688 C1468.0781,456.5313 1468.0625,456.4063 1467.9688,456.25 C1467.8125,455.9844 1467.5313,455.8438 1467.2344,455.8438 C1466.9375,455.8438 1466.7344,455.9375 1466.5156,456.25 L1466.3438,456.1719 Z " fill="#000000"/><text fill="#000000" font-family="sans-serif" font-size="14" lengthAdjust="spacing" textLength="152" x="1482" y="465.3467">ControlTablaSimbolo</text><line style="stroke:#181818;stroke-width:0.5;" x1="1432" x2="1654" y1="476.5" y2="476.5"/><rect fill="none" height="6" style="stroke:#C82930;stroke-width:1.0;" width="6" x="1439" y="487.1484"/><text fill="#000000" font-family="sans-serif" font-size="14" lengthAdjust="spacing" textLength="198" x="1451" y="493.4951">TablaSimbolo tablaSimbolo</text><line style="stroke:#181818;stroke-width:0.5;" x1="1432" x2="1654" y1="500.7969" y2="500.7969"/></g><!--class ControladorError--><g id="elem_ControladorError"><rect codeLine="26" fill="#F1F1F1" height="64.2969" id="ControladorError" rx="2.5" ry="2.5" style="stroke:#181818;stroke-width:0.5;" width="154" x="1690" y="444.5"/><ellipse cx="1705" cy="460.5" fill="#ADD1B2" rx="11" ry="11" style="stroke:#181818;stroke-width:1.0;"/><path d="M1707.3438,456.1719 C1706.4063,455.7344 1705.8125,455.5938 1704.9375,455.5938 C1702.3125,455.5938 1700.3125,457.6719 1700.3125,460.3906 L1700.3125,461.5156 C1700.3125,464.0938 1702.4219,465.9844 1705.3125,465.9844 C1706.5313,465.9844 1707.6875,465.6875 1708.4375,465.1406 C1709.0156,464.7344 1709.3438,464.2813 1709.3438,463.8906 C1709.3438,463.4375 1708.9531,463.0469 1708.4844,463.0469 C1708.2656,463.0469 1708.0625,463.125 1707.875,463.3125 C1707.4219,463.7969 1707.4219,463.7969 1707.2344,463.8906 C1706.8125,464.1563 1706.125,464.2813 1705.3594,464.2813 C1703.3125,464.2813 1702.0156,463.1875 1702.0156,461.4844 L1702.0156,460.3906 C1702.0156,458.6094 1703.2656,457.2969 1705,457.2969 C1705.5781,457.2969 1706.1875,457.4531 1706.6563,457.7031 C1707.1406,457.9844 1707.3125,458.2031 1707.4063,458.6094 C1707.4688,459.0156 1707.5,459.1406 1707.6406,459.2656 C1707.7813,459.4063 1708.0156,459.5156 1708.2344,459.5156 C1708.5,459.5156 1708.7656,459.375 1708.9375,459.1563 C1709.0469,459 1709.0781,458.8125 1709.0781,458.3906 L1709.0781,456.9688 C1709.0781,456.5313 1709.0625,456.4063 1708.9688,456.25 C1708.8125,455.9844 1708.5313,455.8438 1708.2344,455.8438 C1707.9375,455.8438 1707.7344,455.9375 1707.5156,456.25 L1707.3438,456.1719 Z " fill="#000000"/><text fill="#000000" font-family="sans-serif" font-size="14" lengthAdjust="spacing" textLength="122" x="1719" y="465.3467">ControladorError</text><line style="stroke:#181818;stroke-width:0.5;" x1="1691" x2="1843" y1="476.5" y2="476.5"/><rect fill="none" height="6" style="stroke:#C82930;stroke-width:1.0;" width="6" x="1698" y="487.1484"/><text fill="#000000" font-family="sans-serif" font-size="14" lengthAdjust="spacing" textLength="76" x="1710" y="493.4951">Error error</text><line style="stroke:#181818;stroke-width:0.5;" x1="1691" x2="1843" y1="500.7969" y2="500.7969"/></g><!--class ScannerFactory--><g id="elem_ScannerFactory"><rect codeLine="32" fill="#F1F1F1" height="48" id="ScannerFactory" rx="2.5" ry="2.5" style="stroke:#181818;stroke-width:0.5;" width="144" x="567" y="452.5"/><ellipse cx="582" cy="468.5" fill="#ADD1B2" rx="11" ry="11" style="stroke:#181818;stroke-width:1.0;"/><path d="M584.3438,464.1719 C583.4063,463.7344 582.8125,463.5938 581.9375,463.5938 C579.3125,463.5938 577.3125,465.6719 577.3125,468.3906 L577.3125,469.5156 C577.3125,472.0938 579.4219,473.9844 582.3125,473.9844 C583.5313,473.9844 584.6875,473.6875 585.4375,473.1406 C586.0156,472.7344 586.3438,472.2813 586.3438,471.8906 C586.3438,471.4375 585.9531,471.0469 585.4844,471.0469 C585.2656,471.0469 585.0625,471.125 584.875,471.3125 C584.4219,471.7969 584.4219,471.7969 584.2344,471.8906 C583.8125,472.1563 583.125,472.2813 582.3594,472.2813 C580.3125,472.2813 579.0156,471.1875 579.0156,469.4844 L579.0156,468.3906 C579.0156,466.6094 580.2656,465.2969 582,465.2969 C582.5781,465.2969 583.1875,465.4531 583.6563,465.7031 C584.1406,465.9844 584.3125,466.2031 584.4063,466.6094 C584.4688,467.0156 584.5,467.1406 584.6406,467.2656 C584.7813,467.4063 585.0156,467.5156 585.2344,467.5156 C585.5,467.5156 585.7656,467.375 585.9375,467.1563 C586.0469,467 586.0781,466.8125 586.0781,466.3906 L586.0781,464.9688 C586.0781,464.5313 586.0625,464.4063 585.9688,464.25 C585.8125,463.9844 585.5313,463.8438 585.2344,463.8438 C584.9375,463.8438 584.7344,463.9375 584.5156,464.25 L584.3438,464.1719 Z " fill="#000000"/><text fill="#000000" font-family="sans-serif" font-size="14" lengthAdjust="spacing" textLength="112" x="596" y="473.3467">ScannerFactory</text><line style="stroke:#181818;stroke-width:0.5;" x1="568" x2="710" y1="484.5" y2="484.5"/><line style="stroke:#181818;stroke-width:0.5;" x1="568" x2="710" y1="492.5" y2="492.5"/></g><!--class ControladorArbolSintactico--><g id="elem_ControladorArbolSintactico"><rect codeLine="36" fill="#F1F1F1" height="64.2969" id="ControladorArbolSintactico" rx="2.5" ry="2.5" style="stroke:#181818;stroke-width:0.5;" width="252" x="175" y="593"/><ellipse cx="199.9" cy="609" fill="#ADD1B2" rx="11" ry="11" style="stroke:#181818;stroke-width:1.0;"/><path d="M202.2438,604.6719 C201.3063,604.2344 200.7125,604.0938 199.8375,604.0938 C197.2125,604.0938 195.2125,606.1719 195.2125,608.8906 L195.2125,610.0156 C195.2125,612.5938 197.3219,614.4844 200.2125,614.4844 C201.4313,614.4844 202.5875,614.1875 203.3375,613.6406 C203.9156,613.2344 204.2438,612.7813 204.2438,612.3906 C204.2438,611.9375 203.8531,611.5469 203.3844,611.5469 C203.1656,611.5469 202.9625,611.625 202.775,611.8125 C202.3219,612.2969 202.3219,612.2969 202.1344,612.3906 C201.7125,612.6563 201.025,612.7813 200.2594,612.7813 C198.2125,612.7813 196.9156,611.6875 196.9156,609.9844 L196.9156,608.8906 C196.9156,607.1094 198.1656,605.7969 199.9,605.7969 C200.4781,605.7969 201.0875,605.9531 201.5563,606.2031 C202.0406,606.4844 202.2125,606.7031 202.3063,607.1094 C202.3688,607.5156 202.4,607.6406 202.5406,607.7656 C202.6813,607.9063 202.9156,608.0156 203.1344,608.0156 C203.4,608.0156 203.6656,607.875 203.8375,607.6563 C203.9469,607.5 203.9781,607.3125 203.9781,606.8906 L203.9781,605.4688 C203.9781,605.0313 203.9625,604.9063 203.8688,604.75 C203.7125,604.4844 203.4313,604.3438 203.1344,604.3438 C202.8375,604.3438 202.6344,604.4375 202.4156,604.75 L202.2438,604.6719 Z " fill="#000000"/><text fill="#000000" font-family="sans-serif" font-size="14" lengthAdjust="spacing" textLength="198" x="216.1" y="613.8467">ControladorArbolSintactico</text><line style="stroke:#181818;stroke-width:0.5;" x1="176" x2="426" y1="625" y2="625"/><rect fill="none" height="6" style="stroke:#C82930;stroke-width:1.0;" width="6" x="183" y="635.6484"/><text fill="#000000" font-family="sans-serif" font-size="14" lengthAdjust="spacing" textLength="226" x="195" y="641.9951">ArbolSintactico arbolSintactico</text><line style="stroke:#181818;stroke-width:0.5;" x1="176" x2="426" y1="649.2969" y2="649.2969"/></g><!--class Escaneable--><g id="elem_Escaneable"><rect codeLine="40" fill="#F1F1F1" height="113.1875" id="Escaneable" rx="2.5" ry="2.5" style="stroke:#181818;stroke-width:0.5;" width="462" x="70" y="420"/><ellipse cx="255.75" cy="436" fill="#B4A7E5" rx="11" ry="11" style="stroke:#181818;stroke-width:1.0;"/><path d="M256.7031,432.7813 L258.4219,432.7813 C258.8125,432.7813 259,432.75 259.125,432.6719 C259.3906,432.5156 259.5313,432.2344 259.5313,431.9375 C259.5313,431.6719 259.4219,431.4063 259.1875,431.2344 C259.0156,431.125 258.875,431.0938 258.4219,431.0938 L253.2813,431.0938 C252.8438,431.0938 252.7188,431.1094 252.5625,431.2031 C252.3125,431.3594 252.1563,431.6563 252.1563,431.9375 C252.1563,432.2188 252.2969,432.4688 252.5156,432.6406 C252.6719,432.75 252.8594,432.7813 253.2813,432.7813 L255,432.7813 L255,439.2969 L253.2813,439.2969 C252.8438,439.2969 252.7188,439.3125 252.5625,439.4219 C252.3125,439.5781 252.1563,439.8594 252.1563,440.1563 C252.1563,440.4063 252.2969,440.6719 252.5156,440.8281 C252.6719,440.9531 252.875,441 253.2813,441 L258.4219,441 C259.1719,441 259.5313,440.7188 259.5313,440.1563 C259.5313,439.875 259.4219,439.625 259.1875,439.4531 C259.0156,439.3281 258.875,439.2969 258.4219,439.2969 L256.7031,439.2969 L256.7031,432.7813 Z " fill="#000000"/><text fill="#000000" font-family="sans-serif" font-size="14" font-style="italic" lengthAdjust="spacing" textLength="82" x="276.25" y="440.8467">Escaneable</text><line style="stroke:#181818;stroke-width:0.5;" x1="71" x2="531" y1="452" y2="452"/><line style="stroke:#181818;stroke-width:0.5;" x1="71" x2="531" y1="460" y2="460"/><ellipse cx="81" cy="473.6484" fill="#84BE84" rx="3" ry="3" style="stroke:#038048;stroke-width:1.0;"/><text fill="#000000" font-family="sans-serif" font-size="14" font-style="italic" lengthAdjust="spacing" textLength="196" x="90" y="476.9951">setParser(Parseable parser)</text><ellipse cx="81" cy="489.9453" fill="#84BE84" rx="3" ry="3" style="stroke:#038048;stroke-width:1.0;"/><text fill="#000000" font-family="sans-serif" font-size="14" font-style="italic" lengthAdjust="spacing" textLength="206" x="90" y="493.292">boolean verificarGramatica()</text><ellipse cx="81" cy="506.2422" fill="#84BE84" rx="3" ry="3" style="stroke:#038048;stroke-width:1.0;"/><text fill="#000000" font-family="sans-serif" font-size="14" font-style="italic" lengthAdjust="spacing" textLength="436" x="90" y="509.5889">setTablasimbolos(ControlTablaSimbolo controlTablaSimbolo)</text><ellipse cx="81" cy="522.5391" fill="#84BE84" rx="3" ry="3" style="stroke:#038048;stroke-width:1.0;"/><text fill="#000000" font-family="sans-serif" font-size="14" font-style="italic" lengthAdjust="spacing" textLength="253" x="90" y="525.8857">ArbolSintactico getArbolSintactico()</text></g><!--class AutomataPila--><g id="elem_AutomataPila"><rect codeLine="47" fill="#F1F1F1" height="48" id="AutomataPila" rx="2.5" ry="2.5" style="stroke:#181818;stroke-width:0.5;" width="128" x="462" y="601"/><ellipse cx="477" cy="617" fill="#ADD1B2" rx="11" ry="11" style="stroke:#181818;stroke-width:1.0;"/><path d="M479.3438,612.6719 C478.4063,612.2344 477.8125,612.0938 476.9375,612.0938 C474.3125,612.0938 472.3125,614.1719 472.3125,616.8906 L472.3125,618.0156 C472.3125,620.5938 474.4219,622.4844 477.3125,622.4844 C478.5313,622.4844 479.6875,622.1875 480.4375,621.6406 C481.0156,621.2344 481.3438,620.7813 481.3438,620.3906 C481.3438,619.9375 480.9531,619.5469 480.4844,619.5469 C480.2656,619.5469 480.0625,619.625 479.875,619.8125 C479.4219,620.2969 479.4219,620.2969 479.2344,620.3906 C478.8125,620.6563 478.125,620.7813 477.3594,620.7813 C475.3125,620.7813 474.0156,619.6875 474.0156,617.9844 L474.0156,616.8906 C474.0156,615.1094 475.2656,613.7969 477,613.7969 C477.5781,613.7969 478.1875,613.9531 478.6563,614.2031 C479.1406,614.4844 479.3125,614.7031 479.4063,615.1094 C479.4688,615.5156 479.5,615.6406 479.6406,615.7656 C479.7813,615.9063 480.0156,616.0156 480.2344,616.0156 C480.5,616.0156 480.7656,615.875 480.9375,615.6563 C481.0469,615.5 481.0781,615.3125 481.0781,614.8906 L481.0781,613.4688 C481.0781,613.0313 481.0625,612.9063 480.9688,612.75 C480.8125,612.4844 480.5313,612.3438 480.2344,612.3438 C479.9375,612.3438 479.7344,612.4375 479.5156,612.75 L479.3438,612.6719 Z " fill="#000000"/><text fill="#000000" font-family="sans-serif" font-size="14" lengthAdjust="spacing" textLength="96" x="491" y="621.8467">AutomataPila</text><line style="stroke:#181818;stroke-width:0.5;" x1="463" x2="589" y1="633" y2="633"/><line style="stroke:#181818;stroke-width:0.5;" x1="463" x2="589" y1="641" y2="641"/></g><!--class ParserFactory--><g id="elem_ParserFactory"><rect codeLine="58" fill="#F1F1F1" height="48" id="ParserFactory" rx="2.5" ry="2.5" style="stroke:#181818;stroke-width:0.5;" width="131" x="1264.5" y="452.5"/><ellipse cx="1279.5" cy="468.5" fill="#ADD1B2" rx="11" ry="11" style="stroke:#181818;stroke-width:1.0;"/><path d="M1281.8438,464.1719 C1280.9063,463.7344 1280.3125,463.5938 1279.4375,463.5938 C1276.8125,463.5938 1274.8125,465.6719 1274.8125,468.3906 L1274.8125,469.5156 C1274.8125,472.0938 1276.9219,473.9844 1279.8125,473.9844 C1281.0313,473.9844 1282.1875,473.6875 1282.9375,473.1406 C1283.5156,472.7344 1283.8438,472.2813 1283.8438,471.8906 C1283.8438,471.4375 1283.4531,471.0469 1282.9844,471.0469 C1282.7656,471.0469 1282.5625,471.125 1282.375,471.3125 C1281.9219,471.7969 1281.9219,471.7969 1281.7344,471.8906 C1281.3125,472.1563 1280.625,472.2813 1279.8594,472.2813 C1277.8125,472.2813 1276.5156,471.1875 1276.5156,469.4844 L1276.5156,468.3906 C1276.5156,466.6094 1277.7656,465.2969 1279.5,465.2969 C1280.0781,465.2969 1280.6875,465.4531 1281.1563,465.7031 C1281.6406,465.9844 1281.8125,466.2031 1281.9063,466.6094 C1281.9688,467.0156 1282,467.1406 1282.1406,467.2656 C1282.2813,467.4063 1282.5156,467.5156 1282.7344,467.5156 C1283,467.5156 1283.2656,467.375 1283.4375,467.1563 C1283.5469,467 1283.5781,466.8125 1283.5781,466.3906 L1283.5781,464.9688 C1283.5781,464.5313 1283.5625,464.4063 1283.4688,464.25 C1283.3125,463.9844 1283.0313,463.8438 1282.7344,463.8438 C1282.4375,463.8438 1282.2344,463.9375 1282.0156,464.25 L1281.8438,464.1719 Z " fill="#000000"/><text fill="#000000" font-family="sans-serif" font-size="14" lengthAdjust="spacing" textLength="99" x="1293.5" y="473.3467">ParserFactory</text><line style="stroke:#181818;stroke-width:0.5;" x1="1265.5" x2="1394.5" y1="484.5" y2="484.5"/><line style="stroke:#181818;stroke-width:0.5;" x1="1265.5" x2="1394.5" y1="492.5" y2="492.5"/></g><!--class Parseable--><g id="elem_Parseable"><rect codeLine="62" fill="#F1F1F1" height="80.5938" id="Parseable" rx="2.5" ry="2.5" style="stroke:#181818;stroke-width:0.5;" width="462" x="767" y="436"/><ellipse cx="958.75" cy="452" fill="#B4A7E5" rx="11" ry="11" style="stroke:#181818;stroke-width:1.0;"/><path d="M959.7031,448.7813 L961.4219,448.7813 C961.8125,448.7813 962,448.75 962.125,448.6719 C962.3906,448.5156 962.5313,448.2344 962.5313,447.9375 C962.5313,447.6719 962.4219,447.4063 962.1875,447.2344 C962.0156,447.125 961.875,447.0938 961.4219,447.0938 L956.2813,447.0938 C955.8438,447.0938 955.7188,447.1094 955.5625,447.2031 C955.3125,447.3594 955.1563,447.6563 955.1563,447.9375 C955.1563,448.2188 955.2969,448.4688 955.5156,448.6406 C955.6719,448.75 955.8594,448.7813 956.2813,448.7813 L958,448.7813 L958,455.2969 L956.2813,455.2969 C955.8438,455.2969 955.7188,455.3125 955.5625,455.4219 C955.3125,455.5781 955.1563,455.8594 955.1563,456.1563 C955.1563,456.4063 955.2969,456.6719 955.5156,456.8281 C955.6719,456.9531 955.875,457 956.2813,457 L961.4219,457 C962.1719,457 962.5313,456.7188 962.5313,456.1563 C962.5313,455.875 962.4219,455.625 962.1875,455.4531 C962.0156,455.3281 961.875,455.2969 961.4219,455.2969 L959.7031,455.2969 L959.7031,448.7813 Z " fill="#000000"/><text fill="#000000" font-family="sans-serif" font-size="14" font-style="italic" lengthAdjust="spacing" textLength="70" x="979.25" y="456.8467">Parseable</text><line style="stroke:#181818;stroke-width:0.5;" x1="768" x2="1228" y1="468" y2="468"/><line style="stroke:#181818;stroke-width:0.5;" x1="768" x2="1228" y1="476" y2="476"/><ellipse cx="778" cy="489.6484" fill="#84BE84" rx="3" ry="3" style="stroke:#038048;stroke-width:1.0;"/><text fill="#000000" font-family="sans-serif" font-size="14" font-style="italic" lengthAdjust="spacing" textLength="220" x="787" y="492.9951">boolean setFuente(String path)</text><ellipse cx="778" cy="505.9453" fill="#84BE84" rx="3" ry="3" style="stroke:#038048;stroke-width:1.0;"/><text fill="#000000" font-family="sans-serif" font-size="14" font-style="italic" lengthAdjust="spacing" textLength="436" x="787" y="509.292">setTablasimbolos(ControlTablaSimbolo controlTablaSimbolo)</text></g><!--class AutomataFinito--><g id="elem_AutomataFinito"><rect codeLine="67" fill="#F1F1F1" height="48" id="AutomataFinito" rx="2.5" ry="2.5" style="stroke:#181818;stroke-width:0.5;" width="144" x="926" y="601"/><ellipse cx="941" cy="617" fill="#ADD1B2" rx="11" ry="11" style="stroke:#181818;stroke-width:1.0;"/><path d="M943.3438,612.6719 C942.4063,612.2344 941.8125,612.0938 940.9375,612.0938 C938.3125,612.0938 936.3125,614.1719 936.3125,616.8906 L936.3125,618.0156 C936.3125,620.5938 938.4219,622.4844 941.3125,622.4844 C942.5313,622.4844 943.6875,622.1875 944.4375,621.6406 C945.0156,621.2344 945.3438,620.7813 945.3438,620.3906 C945.3438,619.9375 944.9531,619.5469 944.4844,619.5469 C944.2656,619.5469 944.0625,619.625 943.875,619.8125 C943.4219,620.2969 943.4219,620.2969 943.2344,620.3906 C942.8125,620.6563 942.125,620.7813 941.3594,620.7813 C939.3125,620.7813 938.0156,619.6875 938.0156,617.9844 L938.0156,616.8906 C938.0156,615.1094 939.2656,613.7969 941,613.7969 C941.5781,613.7969 942.1875,613.9531 942.6563,614.2031 C943.1406,614.4844 943.3125,614.7031 943.4063,615.1094 C943.4688,615.5156 943.5,615.6406 943.6406,615.7656 C943.7813,615.9063 944.0156,616.0156 944.2344,616.0156 C944.5,616.0156 944.7656,615.875 944.9375,615.6563 C945.0469,615.5 945.0781,615.3125 945.0781,614.8906 L945.0781,613.4688 C945.0781,613.0313 945.0625,612.9063 944.9688,612.75 C944.8125,612.4844 944.5313,612.3438 944.2344,612.3438 C943.9375,612.3438 943.7344,612.4375 943.5156,612.75 L943.3438,612.6719 Z " fill="#000000"/><text fill="#000000" font-family="sans-serif" font-size="14" lengthAdjust="spacing" textLength="112" x="955" y="621.8467">AutomataFinito</text><line style="stroke:#181818;stroke-width:0.5;" x1="927" x2="1069" y1="633" y2="633"/><line style="stroke:#181818;stroke-width:0.5;" x1="927" x2="1069" y1="641" y2="641"/></g><!--class Error--><g id="elem_Error"><rect codeLine="86" fill="#F1F1F1" height="48" id="Error" rx="2.5" ry="2.5" style="stroke:#181818;stroke-width:0.5;" width="68" x="1643" y="764"/><ellipse cx="1658" cy="780" fill="#ADD1B2" rx="11" ry="11" style="stroke:#181818;stroke-width:1.0;"/><path d="M1660.3438,775.6719 C1659.4063,775.2344 1658.8125,775.0938 1657.9375,775.0938 C1655.3125,775.0938 1653.3125,777.1719 1653.3125,779.8906 L1653.3125,781.0156 C1653.3125,783.5938 1655.4219,785.4844 1658.3125,785.4844 C1659.5313,785.4844 1660.6875,785.1875 1661.4375,784.6406 C1662.0156,784.2344 1662.3438,783.7813 1662.3438,783.3906 C1662.3438,782.9375 1661.9531,782.5469 1661.4844,782.5469 C1661.2656,782.5469 1661.0625,782.625 1660.875,782.8125 C1660.4219,783.2969 1660.4219,783.2969 1660.2344,783.3906 C1659.8125,783.6563 1659.125,783.7813 1658.3594,783.7813 C1656.3125,783.7813 1655.0156,782.6875 1655.0156,780.9844 L1655.0156,779.8906 C1655.0156,778.1094 1656.2656,776.7969 1658,776.7969 C1658.5781,776.7969 1659.1875,776.9531 1659.6563,777.2031 C1660.1406,777.4844 1660.3125,777.7031 1660.4063,778.1094 C1660.4688,778.5156 1660.5,778.6406 1660.6406,778.7656 C1660.7813,778.9063 1661.0156,779.0156 1661.2344,779.0156 C1661.5,779.0156 1661.7656,778.875 1661.9375,778.6563 C1662.0469,778.5 1662.0781,778.3125 1662.0781,777.8906 L1662.0781,776.4688 C1662.0781,776.0313 1662.0625,775.9063 1661.9688,775.75 C1661.8125,775.4844 1661.5313,775.3438 1661.2344,775.3438 C1660.9375,775.3438 1660.7344,775.4375 1660.5156,775.75 L1660.3438,775.6719 Z " fill="#000000"/><text fill="#000000" font-family="sans-serif" font-size="14" lengthAdjust="spacing" textLength="36" x="1672" y="784.8467">Error</text><line style="stroke:#181818;stroke-width:0.5;" x1="1644" x2="1710" y1="796" y2="796"/><line style="stroke:#181818;stroke-width:0.5;" x1="1644" x2="1710" y1="804" y2="804"/></g><!--class ArbolSintactico--><g id="elem_ArbolSintactico"><rect codeLine="90" fill="#F1F1F1" height="48" id="ArbolSintactico" rx="2.5" ry="2.5" style="stroke:#181818;stroke-width:0.5;" width="144" x="1299" y="764"/><ellipse cx="1314" cy="780" fill="#ADD1B2" rx="11" ry="11" style="stroke:#181818;stroke-width:1.0;"/><path d="M1316.3438,775.6719 C1315.4063,775.2344 1314.8125,775.0938 1313.9375,775.0938 C1311.3125,775.0938 1309.3125,777.1719 1309.3125,779.8906 L1309.3125,781.0156 C1309.3125,783.5938 1311.4219,785.4844 1314.3125,785.4844 C1315.5313,785.4844 1316.6875,785.1875 1317.4375,784.6406 C1318.0156,784.2344 1318.3438,783.7813 1318.3438,783.3906 C1318.3438,782.9375 1317.9531,782.5469 1317.4844,782.5469 C1317.2656,782.5469 1317.0625,782.625 1316.875,782.8125 C1316.4219,783.2969 1316.4219,783.2969 1316.2344,783.3906 C1315.8125,783.6563 1315.125,783.7813 1314.3594,783.7813 C1312.3125,783.7813 1311.0156,782.6875 1311.0156,780.9844 L1311.0156,779.8906 C1311.0156,778.1094 1312.2656,776.7969 1314,776.7969 C1314.5781,776.7969 1315.1875,776.9531 1315.6563,777.2031 C1316.1406,777.4844 1316.3125,777.7031 1316.4063,778.1094 C1316.4688,778.5156 1316.5,778.6406 1316.6406,778.7656 C1316.7813,778.9063 1317.0156,779.0156 1317.2344,779.0156 C1317.5,779.0156 1317.7656,778.875 1317.9375,778.6563 C1318.0469,778.5 1318.0781,778.3125 1318.0781,777.8906 L1318.0781,776.4688 C1318.0781,776.0313 1318.0625,775.9063 1317.9688,775.75 C1317.8125,775.4844 1317.5313,775.3438 1317.2344,775.3438 C1316.9375,775.3438 1316.7344,775.4375 1316.5156,775.75 L1316.3438,775.6719 Z " fill="#000000"/><text fill="#000000" font-family="sans-serif" font-size="14" lengthAdjust="spacing" textLength="112" x="1328" y="784.8467">ArbolSintactico</text><line style="stroke:#181818;stroke-width:0.5;" x1="1300" x2="1442" y1="796" y2="796"/><line style="stroke:#181818;stroke-width:0.5;" x1="1300" x2="1442" y1="804" y2="804"/></g><!--class TablaSimbolo--><g id="elem_TablaSimbolo"><rect codeLine="94" fill="#F1F1F1" height="48" id="TablaSimbolo" rx="2.5" ry="2.5" style="stroke:#181818;stroke-width:0.5;" width="130" x="1478" y="764"/><ellipse cx="1493" cy="780" fill="#ADD1B2" rx="11" ry="11" style="stroke:#181818;stroke-width:1.0;"/><path d="M1495.3438,775.6719 C1494.4063,775.2344 1493.8125,775.0938 1492.9375,775.0938 C1490.3125,775.0938 1488.3125,777.1719 1488.3125,779.8906 L1488.3125,781.0156 C1488.3125,783.5938 1490.4219,785.4844 1493.3125,785.4844 C1494.5313,785.4844 1495.6875,785.1875 1496.4375,784.6406 C1497.0156,784.2344 1497.3438,783.7813 1497.3438,783.3906 C1497.3438,782.9375 1496.9531,782.5469 1496.4844,782.5469 C1496.2656,782.5469 1496.0625,782.625 1495.875,782.8125 C1495.4219,783.2969 1495.4219,783.2969 1495.2344,783.3906 C1494.8125,783.6563 1494.125,783.7813 1493.3594,783.7813 C1491.3125,783.7813 1490.0156,782.6875 1490.0156,780.9844 L1490.0156,779.8906 C1490.0156,778.1094 1491.2656,776.7969 1493,776.7969 C1493.5781,776.7969 1494.1875,776.9531 1494.6563,777.2031 C1495.1406,777.4844 1495.3125,777.7031 1495.4063,778.1094 C1495.4688,778.5156 1495.5,778.6406 1495.6406,778.7656 C1495.7813,778.9063 1496.0156,779.0156 1496.2344,779.0156 C1496.5,779.0156 1496.7656,778.875 1496.9375,778.6563 C1497.0469,778.5 1497.0781,778.3125 1497.0781,777.8906 L1497.0781,776.4688 C1497.0781,776.0313 1497.0625,775.9063 1496.9688,775.75 C1496.8125,775.4844 1496.5313,775.3438 1496.2344,775.3438 C1495.9375,775.3438 1495.7344,775.4375 1495.5156,775.75 L1495.3438,775.6719 Z " fill="#000000"/><text fill="#000000" font-family="sans-serif" font-size="14" lengthAdjust="spacing" textLength="98" x="1507" y="784.8467">TablaSimbolo</text><line style="stroke:#181818;stroke-width:0.5;" x1="1479" x2="1607" y1="796" y2="796"/><line style="stroke:#181818;stroke-width:0.5;" x1="1479" x2="1607" y1="804" y2="804"/></g><!--class Token--><g id="elem_Token"><rect codeLine="98" fill="#F1F1F1" height="64.2969" id="Token" rx="2.5" ry="2.5" style="stroke:#181818;stroke-width:0.5;" width="182" x="1082" y="756"/><ellipse cx="1146.25" cy="772" fill="#ADD1B2" rx="11" ry="11" style="stroke:#181818;stroke-width:1.0;"/><path d="M1148.5938,767.6719 C1147.6563,767.2344 1147.0625,767.0938 1146.1875,767.0938 C1143.5625,767.0938 1141.5625,769.1719 1141.5625,771.8906 L1141.5625,773.0156 C1141.5625,775.5938 1143.6719,777.4844 1146.5625,777.4844 C1147.7813,777.4844 1148.9375,777.1875 1149.6875,776.6406 C1150.2656,776.2344 1150.5938,775.7813 1150.5938,775.3906 C1150.5938,774.9375 1150.2031,774.5469 1149.7344,774.5469 C1149.5156,774.5469 1149.3125,774.625 1149.125,774.8125 C1148.6719,775.2969 1148.6719,775.2969 1148.4844,775.3906 C1148.0625,775.6563 1147.375,775.7813 1146.6094,775.7813 C1144.5625,775.7813 1143.2656,774.6875 1143.2656,772.9844 L1143.2656,771.8906 C1143.2656,770.1094 1144.5156,768.7969 1146.25,768.7969 C1146.8281,768.7969 1147.4375,768.9531 1147.9063,769.2031 C1148.3906,769.4844 1148.5625,769.7031 1148.6563,770.1094 C1148.7188,770.5156 1148.75,770.6406 1148.8906,770.7656 C1149.0313,770.9063 1149.2656,771.0156 1149.4844,771.0156 C1149.75,771.0156 1150.0156,770.875 1150.1875,770.6563 C1150.2969,770.5 1150.3281,770.3125 1150.3281,769.8906 L1150.3281,768.4688 C1150.3281,768.0313 1150.3125,767.9063 1150.2188,767.75 C1150.0625,767.4844 1149.7813,767.3438 1149.4844,767.3438 C1149.1875,767.3438 1148.9844,767.4375 1148.7656,767.75 L1148.5938,767.6719 Z " fill="#000000"/><text fill="#000000" font-family="sans-serif" font-size="14" lengthAdjust="spacing" textLength="45" x="1166.75" y="776.8467">Token</text><line style="stroke:#181818;stroke-width:0.5;" x1="1083" x2="1263" y1="788" y2="788"/><rect fill="none" height="6" style="stroke:#C82930;stroke-width:1.0;" width="6" x="1090" y="798.6484"/><text fill="#000000" font-family="sans-serif" font-size="14" lengthAdjust="spacing" textLength="156" x="1102" y="804.9951">TipoToken tipoToken</text><line style="stroke:#181818;stroke-width:0.5;" x1="1083" x2="1263" y1="812.2969" y2="812.2969"/></g><!--class TipoToken--><g id="elem_TipoToken"><rect codeLine="102" fill="#F1F1F1" height="48" id="TipoToken" rx="2.5" ry="2.5" style="stroke:#181818;stroke-width:0.5;" width="109" x="1118.5" y="880"/><ellipse cx="1133.5" cy="896" fill="#EB937F" rx="11" ry="11" style="stroke:#181818;stroke-width:1.0;"/><path d="M1132.2969,896.875 L1133.75,896.875 L1133.75,896.9844 C1133.75,897.3906 1133.7813,897.5469 1133.8594,897.7031 C1134.0156,897.9531 1134.2969,898.1094 1134.5938,898.1094 C1134.8438,898.1094 1135.1094,897.9688 1135.2656,897.75 C1135.3906,897.5938 1135.4219,897.4375 1135.4219,896.9844 L1135.4219,895.0625 C1135.4219,894.9063 1135.4219,894.8594 1135.4063,894.7031 C1135.3438,894.2344 1135.0313,893.9219 1134.5781,893.9219 C1134.3281,893.9219 1134.0625,894.0625 1133.8906,894.2813 C1133.7813,894.4531 1133.75,894.6094 1133.75,895.0625 L1133.75,895.1875 L1132.2969,895.1875 L1132.2969,892.7813 L1136.2813,892.7813 L1136.2813,893.6406 C1136.2813,894.0469 1136.3125,894.2188 1136.3906,894.375 C1136.5625,894.625 1136.8438,894.7813 1137.125,894.7813 C1137.3906,894.7813 1137.6563,894.6406 1137.8281,894.4219 C1137.9375,894.25 1137.9688,894.1094 1137.9688,893.6406 L1137.9688,891.0938 L1130.3438,891.0938 C1129.9063,891.0938 1129.7813,891.1094 1129.625,891.2031 C1129.375,891.3594 1129.2188,891.6563 1129.2188,891.9375 C1129.2188,892.2188 1129.3594,892.4688 1129.5781,892.6406 C1129.7344,892.75 1129.9219,892.7813 1130.3438,892.7813 L1130.5938,892.7813 L1130.5938,899.2969 L1130.3438,899.2969 C1129.9375,899.2969 1129.7813,899.3125 1129.625,899.4219 C1129.375,899.5938 1129.2188,899.8594 1129.2188,900.1563 C1129.2188,900.4219 1129.3594,900.6719 1129.5781,900.8281 C1129.7188,900.9531 1129.9531,901 1130.3438,901 L1138.3438,901 L1138.3438,898.4219 C1138.3438,897.9844 1138.3125,897.8438 1138.2344,897.6875 C1138.0625,897.4375 1137.7813,897.2813 1137.5,897.2813 C1137.2344,897.2813 1136.9688,897.3906 1136.7969,897.6406 C1136.6875,897.7969 1136.6563,897.9375 1136.6563,898.4219 L1136.6563,899.2969 L1132.2969,899.2969 L1132.2969,896.875 Z " fill="#000000"/><text fill="#000000" font-family="sans-serif" font-size="14" lengthAdjust="spacing" textLength="77" x="1147.5" y="900.8467">TipoToken</text><line style="stroke:#181818;stroke-width:0.5;" x1="1119.5" x2="1226.5" y1="912" y2="912"/><line style="stroke:#181818;stroke-width:0.5;" x1="1119.5" x2="1226.5" y1="920" y2="920"/></g><!--class App--><g id="elem_App"><rect codeLine="1" fill="#F1F1F1" height="48" id="App" rx="2.5" ry="2.5" style="stroke:#181818;stroke-width:0.5;" width="62" x="1133" y="7"/><ellipse cx="1148" cy="23" fill="#ADD1B2" rx="11" ry="11" style="stroke:#181818;stroke-width:1.0;"/><path d="M1150.3438,18.6719 C1149.4063,18.2344 1148.8125,18.0938 1147.9375,18.0938 C1145.3125,18.0938 1143.3125,20.1719 1143.3125,22.8906 L1143.3125,24.0156 C1143.3125,26.5938 1145.4219,28.4844 1148.3125,28.4844 C1149.5313,28.4844 1150.6875,28.1875 1151.4375,27.6406 C1152.0156,27.2344 1152.3438,26.7813 1152.3438,26.3906 C1152.3438,25.9375 1151.9531,25.5469 1151.4844,25.5469 C1151.2656,25.5469 1151.0625,25.625 1150.875,25.8125 C1150.4219,26.2969 1150.4219,26.2969 1150.2344,26.3906 C1149.8125,26.6563 1149.125,26.7813 1148.3594,26.7813 C1146.3125,26.7813 1145.0156,25.6875 1145.0156,23.9844 L1145.0156,22.8906 C1145.0156,21.1094 1146.2656,19.7969 1148,19.7969 C1148.5781,19.7969 1149.1875,19.9531 1149.6563,20.2031 C1150.1406,20.4844 1150.3125,20.7031 1150.4063,21.1094 C1150.4688,21.5156 1150.5,21.6406 1150.6406,21.7656 C1150.7813,21.9063 1151.0156,22.0156 1151.2344,22.0156 C1151.5,22.0156 1151.7656,21.875 1151.9375,21.6563 C1152.0469,21.5 1152.0781,21.3125 1152.0781,20.8906 L1152.0781,19.4688 C1152.0781,19.0313 1152.0625,18.9063 1151.9688,18.75 C1151.8125,18.4844 1151.5313,18.3438 1151.2344,18.3438 C1150.9375,18.3438 1150.7344,18.4375 1150.5156,18.75 L1150.3438,18.6719 Z " fill="#000000"/><text fill="#000000" font-family="sans-serif" font-size="14" lengthAdjust="spacing" textLength="30" x="1162" y="27.8467">App</text><line style="stroke:#181818;stroke-width:0.5;" x1="1134" x2="1194" y1="39" y2="39"/><line style="stroke:#181818;stroke-width:0.5;" x1="1134" x2="1194" y1="47" y2="47"/></g><!--reverse link Escaneable to AutomataPila--><g id="link_Escaneable_AutomataPila"><path codeLine="51" d="M401.4682,542.9157 C437.6442,566.4707 462.715,582.794 490.639,600.976 " fill="none" id="Escaneable-backto-AutomataPila" style="stroke:#181818;stroke-width:1.0;"/><polygon fill="none" points="386.384,533.094,398.1943,547.9438,404.7421,537.8876,386.384,533.094" style="stroke:#181818;stroke-width:1.0;"/></g><!--reverse link Escaneable to ControladorArbolSintactico--><g id="link_Escaneable_ControladorArbolSintactico"><path codeLine="52" d="M301,545.303 C301,565.519 301,575.616 301,592.938 " fill="none" id="Escaneable-backto-ControladorArbolSintactico" style="stroke:#181818;stroke-width:1.0;"/><polygon fill="#181818" points="301,533.303,297,539.303,301,545.303,305,539.303,301,533.303" style="stroke:#181818;stroke-width:1.0;"/></g><!--link ScannerFactory to ControlAnalizador--><g id="link_ScannerFactory_ControlAnalizador"><path codeLine="53" d="M659.523,452.352 C680.47,430.058 714.942,396.874 751,377 C833.638,331.453 929.368,302.6307 1011.104,283.7457 " fill="none" id="ScannerFactory-to-ControlAnalizador" style="stroke:#181818;stroke-width:1.0;stroke-dasharray:7.0,7.0;"/><polygon fill="#181818" points="1016.95,282.395,1007.2805,280.5237,1012.0783,283.5206,1009.0815,288.3184,1016.95,282.395" style="stroke:#181818;stroke-width:1.0;"/></g><!--reverse link Parseable to AutomataFinito--><g id="link_Parseable_AutomataFinito"><path codeLine="71" d="M998,535.145 C998,561.923 998,578.35 998,600.784 " fill="none" id="Parseable-backto-AutomataFinito" style="stroke:#181818;stroke-width:1.0;"/><polygon fill="none" points="998,517.145,992,535.145,1004,535.145,998,517.145" style="stroke:#181818;stroke-width:1.0;"/></g><!--reverse link ControlAnalizador to Parseable--><g id="link_ControlAnalizador_Parseable"><path codeLine="74" d="M1077.9026,369.6024 C1057.4926,396.6544 1043.98,414.569 1027.85,435.94 " fill="none" id="ControlAnalizador-backto-Parseable" style="stroke:#181818;stroke-width:1.0;"/><polygon fill="#181818" points="1085.13,360.023,1078.3232,362.4036,1077.9026,369.6024,1084.7094,367.2218,1085.13,360.023" style="stroke:#181818;stroke-width:1.0;"/></g><!--reverse link ControlAnalizador to Escaneable--><g id="link_ControlAnalizador_Escaneable"><path codeLine="75" d="M1004.9495,278.6966 C879.2015,298.7366 706.117,330.702 549,377 C508.895,388.818 466.244,404.545 427.828,419.957 " fill="none" id="ControlAnalizador-backto-Escaneable" style="stroke:#181818;stroke-width:1.0;"/><polygon fill="#181818" points="1016.8,276.808,1010.2453,273.8021,1004.9495,278.6966,1011.5043,281.7024,1016.8,276.808" style="stroke:#181818;stroke-width:1.0;"/></g><!--reverse link ControlAnalizador to ControlTablaSimbolo--><g id="link_ControlAnalizador_ControlTablaSimbolo"><path codeLine="76" d="M1321.7954,327.1819 C1355.6154,343.9949 1380.22,357.511 1412,377 C1445.11,397.306 1480.16,423.962 1505.66,444.423 " fill="none" id="ControlAnalizador-backto-ControlTablaSimbolo" style="stroke:#181818;stroke-width:1.0;"/><polygon fill="#181818" points="1311.05,321.84,1314.6421,328.0928,1321.7954,327.1819,1318.2033,320.9291,1311.05,321.84" style="stroke:#181818;stroke-width:1.0;"/></g><!--reverse link ControlAnalizador to ControladorError--><g id="link_ControlAnalizador_ControladorError"><path codeLine="77" d="M1323.1024,269.8023 C1429.4224,284.1363 1561.44,312.895 1673,377 C1702.1,393.723 1727.84,422.2 1744.99,444.247 " fill="none" id="ControlAnalizador-backto-ControladorError" style="stroke:#181818;stroke-width:1.0;"/><polygon fill="#181818" points="1311.21,268.199,1316.6218,272.9648,1323.1024,269.8023,1317.6906,265.0365,1311.21,268.199" style="stroke:#181818;stroke-width:1.0;"/></g><!--link ControlAnalizador to ParserFactory--><g id="link_ControlAnalizador_ParserFactory"><path codeLine="78" d="M1242.87,360.023 C1268.97,394.614 1291.9954,425.139 1308.8354,447.45 " fill="none" id="ControlAnalizador-to-ParserFactory" style="stroke:#181818;stroke-width:1.0;stroke-dasharray:7.0,7.0;"/><polygon fill="#181818" points="1312.45,452.239,1310.2207,442.6458,1309.4378,448.2482,1303.8354,447.4653,1312.45,452.239" style="stroke:#181818;stroke-width:1.0;"/></g><!--reverse link Parseable to ParserFactory--><g id="link_Parseable_ParserFactory"><path codeLine="79" d="M1235.17,476.5 C1246.85,476.5 1252.54,476.5 1264.22,476.5 " fill="none" id="Parseable-backto-ParserFactory" style="stroke:#181818;stroke-width:1.0;stroke-dasharray:7.0,7.0;"/><polygon fill="#181818" points="1229.17,476.5,1238.17,480.5,1234.17,476.5,1238.17,472.5,1229.17,476.5" style="stroke:#181818;stroke-width:1.0;"/></g><!--link Escaneable to Parseable--><g id="link_Escaneable_Parseable"><path codeLine="81" d="M412.697,419.861 C459.034,399.362 514.124,378.745 566.5,368.5 C691.55,344.039 829.2177,393.4423 915.1557,433.4573 " fill="none" id="Escaneable-to-Parseable" style="stroke:#181818;stroke-width:1.0;"/><polygon fill="#181818" points="920.595,435.99,914.1245,428.5648,916.0623,433.8794,910.7477,435.8172,920.595,435.99" style="stroke:#181818;stroke-width:1.0;"/></g><!--reverse link Token to TipoToken--><g id="link_Token_TipoToken"><path codeLine="106" d="M1173,832.151 C1173,851.005 1173,862.647 1173,879.845 " fill="none" id="Token-backto-TipoToken" style="stroke:#181818;stroke-width:1.0;"/><polygon fill="#181818" points="1173,820.151,1169,826.151,1173,832.151,1177,826.151,1173,820.151" style="stroke:#181818;stroke-width:1.0;"/></g><!--reverse link ControlTablaSimbolo to TablaSimbolo--><g id="link_ControlTablaSimbolo_TablaSimbolo"><path codeLine="110" d="M1543,520.593 C1543,582.676 1543,708.743 1543,763.739 " fill="none" id="ControlTablaSimbolo-backto-TablaSimbolo" style="stroke:#181818;stroke-width:1.0;"/><polygon fill="#181818" points="1543,508.593,1539,514.593,1543,520.593,1547,514.593,1543,508.593" style="stroke:#181818;stroke-width:1.0;"/></g><!--reverse link ControladorError to Error--><g id="link_ControladorError_Error"><path codeLine="111" d="M1754.6098,520.1159 C1736.5598,582.1989 1699.76,708.743 1683.76,763.739 " fill="none" id="ControladorError-backto-Error" style="stroke:#181818;stroke-width:1.0;"/><polygon fill="#181818" points="1757.96,508.593,1752.444,513.2377,1754.6098,520.1159,1760.1259,515.4712,1757.96,508.593" style="stroke:#181818;stroke-width:1.0;"/></g><!--reverse link ControladorArbolSintactico to ArbolSintactico--><g id="link_ControladorArbolSintactico_ArbolSintactico"><path codeLine="113" d="M354.0196,663.714 C381.2286,681.493 407.929,695.515 444,705 C488.973,716.826 1237.3,697.105 1281,713 C1308.94,723.164 1334.47,746.055 1351.14,763.706 " fill="none" id="ControladorArbolSintactico-backto-ArbolSintactico" style="stroke:#181818;stroke-width:1.0;"/><polygon fill="#181818" points="343.974,657.15,346.8088,663.7805,354.0196,663.714,351.1848,657.0835,343.974,657.15" style="stroke:#181818;stroke-width:1.0;"/></g><!--link App to ControlAnalizador--><g id="link_App_ControlAnalizador"><path codeLine="117" d="M1164,55.286 C1164,77.889 1164,107.837 1164,142.952 " fill="none" id="App-to-ControlAnalizador" style="stroke:#181818;stroke-width:1.0;stroke-dasharray:7.0,7.0;"/><polygon fill="#181818" points="1164,148.952,1168,139.952,1164,143.952,1160,139.952,1164,148.952" style="stroke:#181818;stroke-width:1.0;"/></g><!--SRC=[lLRBhjem4DtdAxo4U-LyG1T8g89khyJzWS4CODrWHxPfrTByUstdWMCx2QjcWKBcp2DpZcV2Aj2QREkQF8gYAOeQs1TSa820Yl-1arJEGEpLMvWKHidAcL3tHdSn7-fxQzw6_YIuADbf1WBXM25nTm9L1FW0fLjxxUvYSvVXqoBWm6z7MKbYWZywZtUrx9Io1Q7x7O7UYKQplwCmk3eOnSN5fZRNzJTobB92417w2WoLVqNDzMeITa6pLRQa0nS6cE5CEcpqAF91xOkS3UeHw1FladUnzh0r7XK-6C3D17MZniRaJNPzCUop_uaWCgm4KNhXTM899VTCScYDUzjJgNx7c2Rd4jGLKH9Ls5OPOs26nYYV1Q4wMyq4sazJl9C77BLHDbxZzEYFWLh5fs4zxzY9Xln4nS-SWVgXu0QsGbYj5rDwTdKld9mUMFfi8MpSjzoXM2PhUpVIlWPyy0eMs1r1wRscVpT1tqVGO1IzKJgZY95NfBLIySlLb9jqzCsfkIKpB-QM-TUq_DJMKoYFroIIdtd_GoIp5E-vu4Q-I787xcWUMf3hVBgP7EUfInwNKL0Uc6d8Qnx3W9o1b-Lch8u1EzPCMU7Pb653YepcgLSkZVlMZ1V-JPxGCfsk-dwQJu_-TAvEOwErCmEKNoZInSHhsLfCVvSBWU9-2x3vFAtDKJCWYx0pESs_qPFy9MYwQfFrvzNaUOxjSRiSCXv4xYFDVQwLBbrkwFm3]--></g></svg>